<svg xmlns="http://www.w3.org/2000/svg" width="60.068" height="60.791" viewBox="0 0 60.068 60.791">
  <g id="Group_33" data-name="Group 33" transform="translate(-8600.249 -296.435)">
    <path id="Path_36" data-name="Path 36" d="M8601.967,322.663l56.633.012c1.527,0,2.292-1.525,1.211-2.417l-28.322-23.408a1.978,1.978,0,0,0-2.424,0l-28.31,23.395C8599.675,321.137,8600.44,322.663,8601.967,322.663Z" fill="#7f2f3c"/>
    <path id="Path_37" data-name="Path 37" d="M8602.029,326.082h56.478a1.341,1.341,0,0,0,1.462-1.173v-.232a1.341,1.341,0,0,0-1.462-1.173h-56.478a1.341,1.341,0,0,0-1.462,1.173v.232A1.341,1.341,0,0,0,8602.029,326.082Z" fill="#7f2f3c"/>
    <path id="Path_38" data-name="Path 38" d="M8620.763,326.557a1.656,1.656,0,0,0-1.8,1.449v24.718a1.656,1.656,0,0,0,1.8,1.449h3.656a1.657,1.657,0,0,0,1.806-1.449V328.006a1.657,1.657,0,0,0-1.806-1.449Z" fill="#7f2f3c"/>
    <path id="Path_39" data-name="Path 39" d="M8636.469,326.557a1.656,1.656,0,0,0-1.8,1.449v24.718a1.656,1.656,0,0,0,1.8,1.449h3.656a1.657,1.657,0,0,0,1.806-1.449V328.006a1.657,1.657,0,0,0-1.806-1.449Z" fill="#7f2f3c"/>
    <path id="Path_40" data-name="Path 40" d="M8651.159,326.557a1.658,1.658,0,0,0-1.807,1.449v24.718a1.658,1.658,0,0,0,1.807,1.449h3.656a1.657,1.657,0,0,0,1.8-1.449V328.006a1.657,1.657,0,0,0-1.8-1.449Z" fill="#7f2f3c"/>
    <path id="Path_41" data-name="Path 41" d="M8606.073,326.557a1.657,1.657,0,0,0-1.806,1.449v24.718a1.657,1.657,0,0,0,1.806,1.449h3.655a1.658,1.658,0,0,0,1.807-1.449V328.006a1.658,1.658,0,0,0-1.807-1.449Z" fill="#7f2f3c"/>
    <path id="Path_42" data-name="Path 42" d="M8658.523,354.648h-56.479a1.342,1.342,0,0,0-1.462,1.173v.232a1.342,1.342,0,0,0,1.462,1.173h56.479a1.342,1.342,0,0,0,1.462-1.173v-.232A1.342,1.342,0,0,0,8658.523,354.648Z" fill="#7f2f3c"/>
  </g>
</svg>
