<svg xmlns="http://www.w3.org/2000/svg" width="140" height="188" viewBox="0 0 140 188">
  <g id="Group_50" data-name="Group 50" transform="translate(-541 -136)">
    <g id="Group_49" data-name="Group 49" transform="translate(-8829 -2714)">
      <g id="Group_47" data-name="Group 47" transform="translate(804.676 2472.797)">
        <path id="Path_46" data-name="Path 46" d="M8622.719,471.226h24.4a.874.874,0,0,0,.892-.856V469.4a.874.874,0,0,0-.892-.856h-24.4a.874.874,0,0,0-.892.856v.967A.874.874,0,0,0,8622.719,471.226Z" fill="#7f2f3c"/>
        <path id="Path_47" data-name="Path 47" d="M8647.968,471.956h-26.095a.874.874,0,0,0-.892.856v3.776a.874.874,0,0,0,.892.856h26.095a.875.875,0,0,0,.893-.856v-3.776A.875.875,0,0,0,8647.968,471.956Z" fill="#7f2f3c"/>
        <path id="Path_48" data-name="Path 48" d="M8659.13,419.048a7.576,7.576,0,0,0-.9-.325,2.568,2.568,0,0,0-2.617-2.52h-42.5a2.563,2.563,0,0,0-2.616,2.683c.007.091.015.181.022.272-4.467,2.169-5.546,8.264-2.381,13.763,2.557,4.442,7.11,7.153,11.209,7.044a21.63,21.63,0,0,0,11.909,6.475.68.68,0,0,0-.008.252,26.354,26.354,0,0,1-.35,10.688,20.413,20.413,0,0,1-4.917,9.276.709.709,0,0,0,.546,1.193h16.777a.71.71,0,0,0,.548-1.193,20.4,20.4,0,0,1-4.916-9.276,26.327,26.327,0,0,1-.352-10.688.679.679,0,0,0-.078-.452,21.927,21.927,0,0,0,10.958-6.368c4.351.661,9.489-2.123,12.269-6.951C8664.955,427.329,8663.788,421.118,8659.13,419.048Zm-49.081,13.025c-2.355-4.094-1.971-8.622.629-11.294A33.894,33.894,0,0,0,8617.611,438,12.664,12.664,0,0,1,8610.049,432.073Zm49.78,0a12.435,12.435,0,0,1-8.925,6.19,34,34,0,0,0,7.244-18.377C8661.667,422.336,8662.473,427.478,8659.829,432.073Z" fill="#7f2f3c"/>
      </g>
    </g>
    <text id="Athletics" transform="translate(555 316)" fill="#707070" font-size="30" font-family="SegoeUIHistoric, Segoe UI Historic"><tspan x="0" y="0">Athletics</tspan></text>
    <g id="Ellipse_29" data-name="Ellipse 29" transform="translate(541 136)" fill="none" stroke="#7f2f3c" stroke-width="5">
      <circle cx="70" cy="70" r="70" stroke="none"/>
      <circle cx="70" cy="70" r="67.5" fill="none"/>
    </g>
  </g>
</svg>
