<svg xmlns="http://www.w3.org/2000/svg" width="60.068" height="60.791" viewBox="0 0 60.068 60.791">
  <g id="Group_40" data-name="Group 40" transform="translate(-7863.965 -869.986)">
    <path id="Path_69" data-name="Path 69" d="M7865.683,896.214l56.633.012c1.527,0,2.292-1.525,1.211-2.418L7895.2,870.4a1.979,1.979,0,0,0-2.424,0l-28.31,23.4C7863.391,894.688,7864.156,896.214,7865.683,896.214Z" fill="#7f2f3c"/>
    <path id="Path_70" data-name="Path 70" d="M7865.744,899.633h56.479a1.343,1.343,0,0,0,1.462-1.174v-.231a1.342,1.342,0,0,0-1.462-1.173h-56.479a1.342,1.342,0,0,0-1.462,1.173v.231A1.342,1.342,0,0,0,7865.744,899.633Z" fill="#7f2f3c"/>
    <path id="Path_71" data-name="Path 71" d="M7884.479,900.108a1.657,1.657,0,0,0-1.805,1.449v24.718a1.656,1.656,0,0,0,1.805,1.448h3.656a1.657,1.657,0,0,0,1.806-1.448V901.557a1.658,1.658,0,0,0-1.806-1.449Z" fill="#7f2f3c"/>
    <path id="Path_72" data-name="Path 72" d="M7900.185,900.108a1.657,1.657,0,0,0-1.805,1.449v24.718a1.656,1.656,0,0,0,1.805,1.448h3.656a1.657,1.657,0,0,0,1.806-1.448V901.557a1.658,1.658,0,0,0-1.806-1.449Z" fill="#7f2f3c"/>
    <path id="Path_73" data-name="Path 73" d="M7914.875,900.108a1.658,1.658,0,0,0-1.806,1.449v24.718a1.657,1.657,0,0,0,1.806,1.448h3.656a1.656,1.656,0,0,0,1.805-1.448V901.557a1.657,1.657,0,0,0-1.805-1.449Z" fill="#7f2f3c"/>
    <path id="Path_74" data-name="Path 74" d="M7869.789,900.108a1.657,1.657,0,0,0-1.805,1.449v24.718a1.656,1.656,0,0,0,1.805,1.448h3.656a1.657,1.657,0,0,0,1.806-1.448V901.557a1.658,1.658,0,0,0-1.806-1.449Z" fill="#7f2f3c"/>
    <path id="Path_75" data-name="Path 75" d="M7922.239,928.2H7865.76a1.342,1.342,0,0,0-1.462,1.173v.232a1.342,1.342,0,0,0,1.462,1.173h56.479a1.341,1.341,0,0,0,1.461-1.173v-.232A1.341,1.341,0,0,0,7922.239,928.2Z" fill="#7f2f3c"/>
  </g>
</svg>
