<svg xmlns="http://www.w3.org/2000/svg" width="51.912" height="46.637" viewBox="0 0 51.912 46.637">
  <path id="Path_277" data-name="Path 277" d="M8993.08,437.924l-10.644,10.131a1.341,1.341,0,0,0-.386,1.271l3.208,14.34a1.451,1.451,0,0,1-2.15,1.509l-13.959-6.794a1.611,1.611,0,0,0-1.419,0l-13.4,6.742a1.569,1.569,0,0,1-2.277-1.518l2.018-14.33a1.443,1.443,0,0,0-.492-1.272l-11.487-10.173a1.383,1.383,0,0,1,.744-2.447l15.205-2.063a1.44,1.44,0,0,0,1.116-.783l6.3-13.03a1.569,1.569,0,0,1,2.736.005l7.381,13.056a1.609,1.609,0,0,0,1.181.787l15.379,2.12A1.452,1.452,0,0,1,8993.08,437.924Z" transform="translate(-8941.589 -418.707)" fill="#fff"/>
</svg>
