<svg xmlns="http://www.w3.org/2000/svg" width="57.213" height="58.05" viewBox="0 0 57.213 58.05">
  <path id="Path_44" data-name="Path 44" d="M8997.26,186.221h-9.449v-4.656a1.924,1.924,0,1,0-3.844,0v4.656h-23.748v-4.656a1.924,1.924,0,1,0-3.844,0v4.656h-8.4a4.24,4.24,0,0,0-4.13,4.342v42.079a4.837,4.837,0,0,0,4.712,4.953h47.79a4.836,4.836,0,0,0,4.711-4.953V190.216A3.9,3.9,0,0,0,8997.26,186.221Zm-.549,44.17a3.01,3.01,0,0,1-2.932,3.083h-41.72a3.415,3.415,0,0,1-3.326-3.5V197.261h47.978Z" transform="translate(-8943.848 -179.545)" fill="#7f2f3c"/>
</svg>
