<svg xmlns="http://www.w3.org/2000/svg" width="41.975" height="53.465" viewBox="0 0 41.975 53.465">
  <path id="Path_43" data-name="Path 43" d="M8967.076,306.87c-11.59,0-20.987,8-20.987,17.859a15.638,15.638,0,0,0,2.121,7.827h-.01l.1.149a17.759,17.759,0,0,0,1.173,1.742l17.437,25.888,17.129-25.1a16.075,16.075,0,0,0,4.025-10.511C8988.063,314.866,8978.667,306.87,8967.076,306.87Zm0,23.276c-2.97,0-5.378-2.118-5.378-4.73s2.408-4.731,5.378-4.731,5.379,2.118,5.379,4.731S8970.047,330.146,8967.076,330.146Z" transform="translate(-8946.089 -306.87)" fill="#7f2f3c"/>
</svg>
