<svg xmlns="http://www.w3.org/2000/svg" viewBox="0 0 58.88 70.82"><defs><style>.cls-1{fill:#cecccd;}</style></defs><title>Asset 48</title><g id="Layer_2" data-name="Layer 2"><g id="Layer_11" data-name="Layer 11"><path class="cls-1" d="M5,54c1.88-2.7,2.36-5.79,2.85-8.85C8.9,38.35,9.93,31.57,11,24.8a16.47,16.47,0,0,1,2.52-6.37,13.74,13.74,0,0,1,8.08-6c1.38-.38,2.79-.65,4.19-1,.39-.08.57-.24.57-.65,0-1.17,0-2.35,0-3.52A.76.76,0,0,0,26,6.76c-1-.33-1.93-.61-2.9-.92a1.25,1.25,0,0,1-.94-1c-.18-.94-.4-1.89-.52-2.84A1,1,0,0,1,22.56.85a50.4,50.4,0,0,1,6-.84,45.48,45.48,0,0,1,5.92.51c.61.07,1.21.23,1.82.33s1,.46,1,1.06a31.58,31.58,0,0,1-.69,3.35c-.06.23-.43.45-.7.55-1,.33-1.92.64-2.9.91-.37.1-.5.24-.49.62,0,1.13,0,2.26,0,3.38,0,.47.17.66.62.75,1.32.26,2.65.51,3.94.87a14.39,14.39,0,0,1,9.62,8.6,26.87,26.87,0,0,1,1.7,6.65c1,6.07,1.85,12.17,2.8,18.25.21,1.34.52,2.68.86,4A10.37,10.37,0,0,0,53.93,54Z"/><path class="cls-1" d="M36.25,63.76c-.53,4.58-3,7.07-6.95,7.06a6.81,6.81,0,0,1-6.65-7c-.27,0-.54,0-.82,0H1.94c-1,0-1.36-.23-1.68-1.23a5.28,5.28,0,0,1,0-3.38A1.42,1.42,0,0,1,2,58l38,0h17c1.09,0,1.38.21,1.71,1.26a5.45,5.45,0,0,1-.05,3.39A1.39,1.39,0,0,1,57,63.75H36.25Z"/></g></g></svg>