<svg xmlns="http://www.w3.org/2000/svg" viewBox="0 0 166.88 162.06"><defs><style>.cls-1{fill:#231f20;}</style></defs><title>Asset 37</title><g id="Layer_2" data-name="Layer 2"><g id="Layer_11" data-name="Layer 11"><path class="cls-1" d="M10.94,13.18c-.12.62-.72,2.7-.92,3.32H.72v-.56c1.82-.18,2-.28,2-2V6c0-1.7-.2-1.8-1.8-2V3.5H6.26v.56c-1.6.16-1.82.24-1.82,2v8.14c0,1.22.16,1.5,1.3,1.52l1.58,0c1,0,1.32-.12,1.78-.62A6.77,6.77,0,0,0,10.32,13Z" transform="translate(-0.64 -3.32)"/><path class="cls-1" d="M16.94,7.48A4.3,4.3,0,0,1,21.3,12a4.48,4.48,0,0,1-4.36,4.78,4.39,4.39,0,0,1-4.44-4.46A4.58,4.58,0,0,1,16.94,7.48Zm-.24.68c-1.22,0-2.32,1.18-2.32,3.5,0,2.54,1.12,4.38,2.76,4.38,1.24,0,2.28-.9,2.28-3.64C19.42,10.06,18.46,8.16,16.7,8.16Z" transform="translate(-0.64 -3.32)"/><path class="cls-1" d="M27.2,16.5H22.6v-.56c1.26-.12,1.38-.22,1.38-1.52V10.26c0-1.32-.08-1.38-1.24-1.52v-.5a11.07,11.07,0,0,0,2.82-.82v2.2c.7-1,1.54-2.14,2.54-2.14a1,1,0,0,1,1.16,1,1.34,1.34,0,0,1-.68,1.1.39.39,0,0,1-.52,0,1.26,1.26,0,0,0-.9-.5c-.42,0-1.16.62-1.6,1.64V14.4c0,1.32.1,1.42,1.64,1.54Z" transform="translate(-0.64 -3.32)"/><path class="cls-1" d="M37.2,14.8a4.56,4.56,0,0,1-3.32,1.94A4,4,0,0,1,30,12.44a5.14,5.14,0,0,1,1.3-3.5,4.1,4.1,0,0,1,3-1.46,3.12,3.12,0,0,1,3.06,3.1c0,.4-.08.58-.4.66s-3,.26-5.34.34c-.06,2.68,1.58,3.78,3,3.78a3.38,3.38,0,0,0,2.32-1ZM33.76,8.24c-.92,0-1.82.86-2.1,2.48,1.12,0,2.24,0,3.42-.06.36,0,.48-.1.48-.4A1.86,1.86,0,0,0,33.76,8.24Z" transform="translate(-0.64 -3.32)"/><path class="cls-1" d="M49.48,16.5v-.56c1.18-.12,1.32-.2,1.32-1.6V11c0-1.42-.48-2.32-1.72-2.32a3.65,3.65,0,0,0-2.22,1,8.23,8.23,0,0,1,.06.86v3.88c0,1.26.18,1.36,1.28,1.48v.56H43.92v-.56c1.24-.12,1.42-.2,1.42-1.52V11c0-1.48-.46-2.3-1.68-2.3a3.83,3.83,0,0,0-2.2,1v4.7c0,1.32.14,1.4,1.28,1.52v.56h-4.3v-.56c1.32-.12,1.44-.2,1.44-1.52V10.28c0-1.28-.08-1.36-1.2-1.56v-.5a10.74,10.74,0,0,0,2.78-.8V9a14,14,0,0,1,1.48-1,2.72,2.72,0,0,1,1.58-.52A2.34,2.34,0,0,1,46.7,9.12c.56-.44,1.08-.78,1.58-1.12a3,3,0,0,1,1.58-.52c1.56,0,2.52,1.12,2.52,3.08v3.86c0,1.34.12,1.4,1.26,1.52v.56Z" transform="translate(-0.64 -3.32)"/><path class="cls-1" d="M59.48,16.5v-.56c1.26-.12,1.4-.22,1.4-1.58V10.24c0-1.24-.06-1.32-1.26-1.52V8.24a13.1,13.1,0,0,0,2.84-.8v6.92c0,1.36.14,1.46,1.44,1.58v.56Zm2.08-11A1.09,1.09,0,0,1,60.5,4.42a1.08,1.08,0,0,1,1.08-1.1,1,1,0,0,1,1,1.1A1.06,1.06,0,0,1,61.56,5.48Z" transform="translate(-0.64 -3.32)"/><path class="cls-1" d="M64.74,8.14a13,13,0,0,0,2.9-.86v1.6l1.74-1a2.83,2.83,0,0,1,1.16-.4,3.61,3.61,0,0,1,3.54,3.82c0,3-2.4,5-5,5.44a3.31,3.31,0,0,1-1.42-.36v2.7c0,1.48.16,1.6,1.7,1.74v.56H64.6v-.56c1.3-.14,1.46-.24,1.46-1.58v-9.1c0-1.2,0-1.28-1.32-1.46ZM67.64,15a2.9,2.9,0,0,0,1.9.78c1.74,0,2.86-1.46,2.86-3.7s-1.26-3.38-2.68-3.38a4,4,0,0,0-2.08.86Z" transform="translate(-0.64 -3.32)"/><path class="cls-1" d="M80.78,10.1c-.36-1.16-.88-2-2.1-2a1.21,1.21,0,0,0-1.24,1.3c0,.86.58,1.26,1.7,1.78,1.72.82,2.58,1.42,2.58,2.74,0,1.84-1.68,2.78-3.26,2.78a5.23,5.23,0,0,1-2.38-.56c-.1-.58-.28-1.68-.36-2.34l.58-.1c.36,1.28,1.06,2.32,2.46,2.32a1.33,1.33,0,0,0,1.4-1.36c0-.9-.54-1.36-1.6-1.88C77.16,12.14,76,11.5,76,10.06s1.24-2.58,3.12-2.58a10.29,10.29,0,0,1,1.92.26c.06.48.2,1.74.3,2.22Z" transform="translate(-0.64 -3.32)"/><path class="cls-1" d="M92.54,16a23,23,0,0,0-3.06.7V15.2a4.93,4.93,0,0,1-3.06,1.54c-1.34,0-2.5-.82-2.5-3V9.86c0-1.08-.16-1.2-.66-1.3l-.56-.1V7.94a27.16,27.16,0,0,0,2.86-.36c-.06.64-.06,1.6-.06,2.92v2.72c0,1.76.92,2.26,1.82,2.26a3.16,3.16,0,0,0,2.16-1V9.86c0-1.08-.24-1.22-.92-1.32l-.64-.08V7.94a28.33,28.33,0,0,0,3.14-.36v6.7c0,1,.16,1.14.92,1.18l.56,0Z" transform="translate(-0.64 -3.32)"/><path class="cls-1" d="M104.52,16.5v-.56c1.18-.12,1.32-.2,1.32-1.6V11c0-1.42-.48-2.32-1.72-2.32a3.65,3.65,0,0,0-2.22,1,8.23,8.23,0,0,1,.06.86v3.88c0,1.26.18,1.36,1.28,1.48v.56H99v-.56c1.24-.12,1.42-.2,1.42-1.52V11c0-1.48-.46-2.3-1.68-2.3a3.83,3.83,0,0,0-2.2,1v4.7c0,1.32.14,1.4,1.28,1.52v.56h-4.3v-.56c1.32-.12,1.44-.2,1.44-1.52V10.28c0-1.28-.08-1.36-1.2-1.56v-.5a10.74,10.74,0,0,0,2.78-.8V9A14,14,0,0,1,98,8a2.72,2.72,0,0,1,1.58-.52,2.34,2.34,0,0,1,2.18,1.64c.56-.44,1.08-.78,1.58-1.12a3,3,0,0,1,1.58-.52c1.56,0,2.52,1.12,2.52,3.08v3.86c0,1.34.12,1.4,1.26,1.52v.56Z" transform="translate(-0.64 -3.32)"/><path class="cls-1" d="M124.82,13.18c-.12.62-.72,2.7-.92,3.32h-9.3v-.56c1.82-.18,2-.28,2-2V6c0-1.7-.2-1.8-1.8-2V3.5h5.36v.56c-1.6.16-1.82.24-1.82,2v8.14c0,1.22.16,1.5,1.3,1.52l1.58,0c1,0,1.32-.12,1.78-.62A6.77,6.77,0,0,0,124.2,13Z" transform="translate(-0.64 -3.32)"/><path class="cls-1" d="M130.82,7.48A4.3,4.3,0,0,1,135.18,12a4.48,4.48,0,0,1-4.36,4.78,4.39,4.39,0,0,1-4.44-4.46A4.58,4.58,0,0,1,130.82,7.48Zm-.24.68c-1.22,0-2.32,1.18-2.32,3.5,0,2.54,1.12,4.38,2.76,4.38,1.24,0,2.28-.9,2.28-3.64C133.3,10.06,132.34,8.16,130.58,8.16Z" transform="translate(-0.64 -3.32)"/><path class="cls-1" d="M141.08,16.5h-4.6v-.56c1.26-.12,1.38-.22,1.38-1.52V10.26c0-1.32-.08-1.38-1.24-1.52v-.5a11.07,11.07,0,0,0,2.82-.82v2.2c.7-1,1.54-2.14,2.54-2.14a1,1,0,0,1,1.16,1,1.34,1.34,0,0,1-.68,1.1.39.39,0,0,1-.52,0A1.26,1.26,0,0,0,141,9c-.42,0-1.16.62-1.6,1.64V14.4c0,1.32.1,1.42,1.64,1.54Z" transform="translate(-0.64 -3.32)"/><path class="cls-1" d="M151.08,14.8a4.56,4.56,0,0,1-3.32,1.94,4,4,0,0,1-3.92-4.3,5.14,5.14,0,0,1,1.3-3.5,4.1,4.1,0,0,1,3-1.46,3.12,3.12,0,0,1,3.06,3.1c0,.4-.08.58-.4.66s-3,.26-5.34.34c-.06,2.68,1.58,3.78,3,3.78a3.38,3.38,0,0,0,2.32-1Zm-3.44-6.56c-.92,0-1.82.86-2.1,2.48,1.12,0,2.24,0,3.42-.06.36,0,.48-.1.48-.4A1.86,1.86,0,0,0,147.64,8.24Z" transform="translate(-0.64 -3.32)"/><path class="cls-1" d="M163.36,16.5v-.56c1.18-.12,1.32-.2,1.32-1.6V11c0-1.42-.48-2.32-1.72-2.32a3.65,3.65,0,0,0-2.22,1,8.23,8.23,0,0,1,.06.86v3.88c0,1.26.18,1.36,1.28,1.48v.56H157.8v-.56c1.24-.12,1.42-.2,1.42-1.52V11c0-1.48-.46-2.3-1.68-2.3a3.83,3.83,0,0,0-2.2,1v4.7c0,1.32.14,1.4,1.28,1.52v.56h-4.3v-.56c1.32-.12,1.44-.2,1.44-1.52V10.28c0-1.28-.08-1.36-1.2-1.56v-.5a10.74,10.74,0,0,0,2.78-.8V9a14,14,0,0,1,1.48-1,2.72,2.72,0,0,1,1.58-.52,2.34,2.34,0,0,1,2.18,1.64c.56-.44,1.08-.78,1.58-1.12a3,3,0,0,1,1.58-.52c1.56,0,2.52,1.12,2.52,3.08v3.86c0,1.34.12,1.4,1.26,1.52v.56Z" transform="translate(-0.64 -3.32)"/><path class="cls-1" d="M.64,40.5v-.56C1.9,39.82,2,39.72,2,38.36V34.24C2,33,2,32.92.78,32.72v-.48a13.1,13.1,0,0,0,2.84-.8v6.92c0,1.36.14,1.46,1.44,1.58v.56Zm2.08-11a1.09,1.09,0,0,1-1.06-1.06,1.08,1.08,0,0,1,1.08-1.1,1,1,0,0,1,1,1.1A1.06,1.06,0,0,1,2.72,29.48Z" transform="translate(-0.64 -3.32)"/><path class="cls-1" d="M5.9,32.14a13,13,0,0,0,2.9-.86v1.6l1.74-1a2.83,2.83,0,0,1,1.16-.4,3.61,3.61,0,0,1,3.54,3.82c0,3-2.4,5-5,5.44a3.31,3.31,0,0,1-1.42-.36v2.7c0,1.48.16,1.6,1.7,1.74v.56H5.76v-.56c1.3-.14,1.46-.24,1.46-1.58v-9.1c0-1.2,0-1.28-1.32-1.46ZM8.8,39a2.9,2.9,0,0,0,1.9.78c1.74,0,2.86-1.46,2.86-3.7s-1.26-3.38-2.68-3.38a4,4,0,0,0-2.08.86Z" transform="translate(-0.64 -3.32)"/><path class="cls-1" d="M21.94,34.1c-.36-1.16-.88-2-2.1-2a1.21,1.21,0,0,0-1.24,1.3c0,.86.58,1.26,1.7,1.78C22,36,22.88,36.64,22.88,38c0,1.84-1.68,2.78-3.26,2.78a5.23,5.23,0,0,1-2.38-.56c-.1-.58-.28-1.68-.36-2.34l.58-.1c.36,1.28,1.06,2.32,2.46,2.32a1.33,1.33,0,0,0,1.4-1.36c0-.9-.54-1.36-1.6-1.88-1.4-.68-2.54-1.32-2.54-2.76s1.24-2.58,3.12-2.58a10.29,10.29,0,0,1,1.92.26c.06.48.2,1.74.3,2.22Z" transform="translate(-0.64 -3.32)"/><path class="cls-1" d="M33.7,40a23,23,0,0,0-3.06.7V39.2a4.93,4.93,0,0,1-3.06,1.54c-1.34,0-2.5-.82-2.5-3V33.86c0-1.08-.16-1.2-.66-1.3l-.56-.1v-.52a27.16,27.16,0,0,0,2.86-.36c-.06.64-.06,1.6-.06,2.92v2.72c0,1.76.92,2.26,1.82,2.26a3.16,3.16,0,0,0,2.16-1V33.86c0-1.08-.24-1.22-.92-1.32l-.64-.08v-.52a28.33,28.33,0,0,0,3.14-.36v6.7c0,1,.16,1.14.92,1.18l.56,0Z" transform="translate(-0.64 -3.32)"/><path class="cls-1" d="M45.68,40.5v-.56c1.18-.12,1.32-.2,1.32-1.6V35c0-1.42-.48-2.32-1.72-2.32a3.65,3.65,0,0,0-2.22,1,8.23,8.23,0,0,1,.06.86v3.88c0,1.26.18,1.36,1.28,1.48v.56H40.12v-.56c1.24-.12,1.42-.2,1.42-1.52V35c0-1.48-.46-2.3-1.68-2.3a3.83,3.83,0,0,0-2.2,1v4.7c0,1.32.14,1.4,1.28,1.52v.56h-4.3v-.56c1.32-.12,1.44-.2,1.44-1.52V34.28c0-1.28-.08-1.36-1.2-1.56v-.5a10.74,10.74,0,0,0,2.78-.8V33a14,14,0,0,1,1.48-1,2.72,2.72,0,0,1,1.58-.52,2.34,2.34,0,0,1,2.18,1.64c.56-.44,1.08-.78,1.58-1.12a3,3,0,0,1,1.58-.52c1.56,0,2.52,1.12,2.52,3.08v3.86c0,1.34.12,1.4,1.26,1.52v.56Z" transform="translate(-0.64 -3.32)"/><path class="cls-1" d="M66,37.18c-.12.62-.72,2.7-.92,3.32h-9.3v-.56c1.82-.18,2-.28,2-2V30c0-1.7-.2-1.8-1.8-2V27.5H61.3v.56c-1.6.16-1.82.24-1.82,2v8.14c0,1.22.16,1.5,1.3,1.52l1.58,0c1,0,1.32-.12,1.78-.62A6.77,6.77,0,0,0,65.36,37Z" transform="translate(-0.64 -3.32)"/><path class="cls-1" d="M72,31.48A4.3,4.3,0,0,1,76.34,36,4.48,4.48,0,0,1,72,40.74a4.39,4.39,0,0,1-4.44-4.46A4.58,4.58,0,0,1,72,31.48Zm-.24.68c-1.22,0-2.32,1.18-2.32,3.5,0,2.54,1.12,4.38,2.76,4.38,1.24,0,2.28-.9,2.28-3.64C74.46,34.06,73.5,32.16,71.74,32.16Z" transform="translate(-0.64 -3.32)"/><path class="cls-1" d="M82.24,40.5h-4.6v-.56c1.26-.12,1.38-.22,1.38-1.52V34.26c0-1.32-.08-1.38-1.24-1.52v-.5a11.07,11.07,0,0,0,2.82-.82v2.2c.7-1,1.54-2.14,2.54-2.14a1,1,0,0,1,1.16,1,1.34,1.34,0,0,1-.68,1.1.39.39,0,0,1-.52,0,1.26,1.26,0,0,0-.9-.5c-.42,0-1.16.62-1.6,1.64V38.4c0,1.32.1,1.42,1.64,1.54Z" transform="translate(-0.64 -3.32)"/><path class="cls-1" d="M92.24,38.8a4.56,4.56,0,0,1-3.32,1.94A4,4,0,0,1,85,36.44a5.14,5.14,0,0,1,1.3-3.5,4.1,4.1,0,0,1,3-1.46,3.12,3.12,0,0,1,3.06,3.1c0,.4-.08.58-.4.66s-3,.26-5.34.34c-.06,2.68,1.58,3.78,3,3.78a3.38,3.38,0,0,0,2.32-1ZM88.8,32.24c-.92,0-1.82.86-2.1,2.48,1.12,0,2.24,0,3.42-.06.36,0,.48-.1.48-.4A1.86,1.86,0,0,0,88.8,32.24Z" transform="translate(-0.64 -3.32)"/><path class="cls-1" d="M104.52,40.5v-.56c1.18-.12,1.32-.2,1.32-1.6V35c0-1.42-.48-2.32-1.72-2.32a3.65,3.65,0,0,0-2.22,1,8.23,8.23,0,0,1,.06.86v3.88c0,1.26.18,1.36,1.28,1.48v.56H99v-.56c1.24-.12,1.42-.2,1.42-1.52V35c0-1.48-.46-2.3-1.68-2.3a3.83,3.83,0,0,0-2.2,1v4.7c0,1.32.14,1.4,1.28,1.52v.56h-4.3v-.56c1.32-.12,1.44-.2,1.44-1.52V34.28c0-1.28-.08-1.36-1.2-1.56v-.5a10.74,10.74,0,0,0,2.78-.8V33A14,14,0,0,1,98,32a2.72,2.72,0,0,1,1.58-.52,2.34,2.34,0,0,1,2.18,1.64c.56-.44,1.08-.78,1.58-1.12a3,3,0,0,1,1.58-.52c1.56,0,2.52,1.12,2.52,3.08v3.86c0,1.34.12,1.4,1.26,1.52v.56Z" transform="translate(-0.64 -3.32)"/><path class="cls-1" d="M114.52,40.5v-.56c1.26-.12,1.4-.22,1.4-1.58V34.24c0-1.24-.06-1.32-1.26-1.52v-.48a13.1,13.1,0,0,0,2.84-.8v6.92c0,1.36.14,1.46,1.44,1.58v.56Zm2.08-11a1.09,1.09,0,0,1-1.06-1.06,1.08,1.08,0,0,1,1.08-1.1,1,1,0,0,1,1,1.1A1.06,1.06,0,0,1,116.6,29.48Z" transform="translate(-0.64 -3.32)"/><path class="cls-1" d="M119.78,32.14a13,13,0,0,0,2.9-.86v1.6l1.74-1a2.83,2.83,0,0,1,1.16-.4,3.61,3.61,0,0,1,3.54,3.82c0,3-2.4,5-5,5.44a3.31,3.31,0,0,1-1.42-.36v2.7c0,1.48.16,1.6,1.7,1.74v.56h-4.74v-.56c1.3-.14,1.46-.24,1.46-1.58v-9.1c0-1.2,0-1.28-1.32-1.46Zm2.9,6.84a2.9,2.9,0,0,0,1.9.78c1.74,0,2.86-1.46,2.86-3.7s-1.26-3.38-2.68-3.38a4,4,0,0,0-2.08.86Z" transform="translate(-0.64 -3.32)"/><path class="cls-1" d="M135.82,34.1c-.36-1.16-.88-2-2.1-2a1.21,1.21,0,0,0-1.24,1.3c0,.86.58,1.26,1.7,1.78,1.72.82,2.58,1.42,2.58,2.74,0,1.84-1.68,2.78-3.26,2.78a5.23,5.23,0,0,1-2.38-.56c-.1-.58-.28-1.68-.36-2.34l.58-.1c.36,1.28,1.06,2.32,2.46,2.32a1.33,1.33,0,0,0,1.4-1.36c0-.9-.54-1.36-1.6-1.88-1.4-.68-2.54-1.32-2.54-2.76s1.24-2.58,3.12-2.58a10.29,10.29,0,0,1,1.92.26c.06.48.2,1.74.3,2.22Z" transform="translate(-0.64 -3.32)"/><path class="cls-1" d="M147.58,40a23,23,0,0,0-3.06.7V39.2a4.93,4.93,0,0,1-3.06,1.54c-1.34,0-2.5-.82-2.5-3V33.86c0-1.08-.16-1.2-.66-1.3l-.56-.1v-.52a27.16,27.16,0,0,0,2.86-.36c-.06.64-.06,1.6-.06,2.92v2.72c0,1.76.92,2.26,1.82,2.26a3.16,3.16,0,0,0,2.16-1V33.86c0-1.08-.24-1.22-.92-1.32l-.64-.08v-.52a28.33,28.33,0,0,0,3.14-.36v6.7c0,1,.16,1.14.92,1.18l.56,0Z" transform="translate(-0.64 -3.32)"/><path class="cls-1" d="M159.56,40.5v-.56c1.18-.12,1.32-.2,1.32-1.6V35c0-1.42-.48-2.32-1.72-2.32a3.65,3.65,0,0,0-2.22,1,8.23,8.23,0,0,1,.06.86v3.88c0,1.26.18,1.36,1.28,1.48v.56H154v-.56c1.24-.12,1.42-.2,1.42-1.52V35c0-1.48-.46-2.3-1.68-2.3a3.83,3.83,0,0,0-2.2,1v4.7c0,1.32.14,1.4,1.28,1.52v.56h-4.3v-.56c1.32-.12,1.44-.2,1.44-1.52V34.28c0-1.28-.08-1.36-1.2-1.56v-.5a10.74,10.74,0,0,0,2.78-.8V33A14,14,0,0,1,153,32a2.72,2.72,0,0,1,1.58-.52,2.34,2.34,0,0,1,2.18,1.64c.56-.44,1.08-.78,1.58-1.12a3,3,0,0,1,1.58-.52c1.56,0,2.52,1.12,2.52,3.08v3.86c0,1.34.12,1.4,1.26,1.52v.56Z" transform="translate(-0.64 -3.32)"/><path class="cls-1" d="M10.94,61.18c-.12.62-.72,2.7-.92,3.32H.72v-.56c1.82-.18,2-.28,2-2V54c0-1.7-.2-1.8-1.8-2V51.5H6.26v.56c-1.6.16-1.82.24-1.82,2v8.14c0,1.22.16,1.5,1.3,1.52l1.58,0c1,0,1.32-.12,1.78-.62A6.77,6.77,0,0,0,10.32,61Z" transform="translate(-0.64 -3.32)"/><path class="cls-1" d="M16.94,55.48A4.3,4.3,0,0,1,21.3,60a4.48,4.48,0,0,1-4.36,4.78,4.39,4.39,0,0,1-4.44-4.46A4.58,4.58,0,0,1,16.94,55.48Zm-.24.68c-1.22,0-2.32,1.18-2.32,3.5,0,2.54,1.12,4.38,2.76,4.38,1.24,0,2.28-.9,2.28-3.64C19.42,58.06,18.46,56.16,16.7,56.16Z" transform="translate(-0.64 -3.32)"/><path class="cls-1" d="M27.2,64.5H22.6v-.56c1.26-.12,1.38-.22,1.38-1.52V58.26c0-1.32-.08-1.38-1.24-1.52v-.5a11.07,11.07,0,0,0,2.82-.82v2.2c.7-1,1.54-2.14,2.54-2.14a1,1,0,0,1,1.16,1,1.34,1.34,0,0,1-.68,1.1.39.39,0,0,1-.52,0,1.26,1.26,0,0,0-.9-.5c-.42,0-1.16.62-1.6,1.64V62.4c0,1.32.1,1.42,1.64,1.54Z" transform="translate(-0.64 -3.32)"/><path class="cls-1" d="M37.2,62.8a4.56,4.56,0,0,1-3.32,1.94A4,4,0,0,1,30,60.44a5.14,5.14,0,0,1,1.3-3.5,4.1,4.1,0,0,1,3-1.46,3.12,3.12,0,0,1,3.06,3.1c0,.4-.08.58-.4.66s-3,.26-5.34.34c-.06,2.68,1.58,3.78,3,3.78a3.38,3.38,0,0,0,2.32-1Zm-3.44-6.56c-.92,0-1.82.86-2.1,2.48,1.12,0,2.24,0,3.42-.06.36,0,.48-.1.48-.4A1.86,1.86,0,0,0,33.76,56.24Z" transform="translate(-0.64 -3.32)"/><path class="cls-1" d="M49.48,64.5v-.56c1.18-.12,1.32-.2,1.32-1.6V59c0-1.42-.48-2.32-1.72-2.32a3.65,3.65,0,0,0-2.22,1,8.23,8.23,0,0,1,.06.86v3.88c0,1.26.18,1.36,1.28,1.48v.56H43.92v-.56c1.24-.12,1.42-.2,1.42-1.52V59c0-1.48-.46-2.3-1.68-2.3a3.83,3.83,0,0,0-2.2,1v4.7c0,1.32.14,1.4,1.28,1.52v.56h-4.3v-.56c1.32-.12,1.44-.2,1.44-1.52V58.28c0-1.28-.08-1.36-1.2-1.56v-.5a10.74,10.74,0,0,0,2.78-.8V57a14,14,0,0,1,1.48-1,2.72,2.72,0,0,1,1.58-.52,2.34,2.34,0,0,1,2.18,1.64c.56-.44,1.08-.78,1.58-1.12a3,3,0,0,1,1.58-.52c1.56,0,2.52,1.12,2.52,3.08v3.86c0,1.34.12,1.4,1.26,1.52v.56Z" transform="translate(-0.64 -3.32)"/><path class="cls-1" d="M59.48,64.5v-.56c1.26-.12,1.4-.22,1.4-1.58V58.24c0-1.24-.06-1.32-1.26-1.52v-.48a13.1,13.1,0,0,0,2.84-.8v6.92c0,1.36.14,1.46,1.44,1.58v.56Zm2.08-11a1.09,1.09,0,0,1-1.06-1.06,1.08,1.08,0,0,1,1.08-1.1,1,1,0,0,1,1,1.1A1.06,1.06,0,0,1,61.56,53.48Z" transform="translate(-0.64 -3.32)"/><path class="cls-1" d="M64.74,56.14a13,13,0,0,0,2.9-.86v1.6l1.74-1a2.83,2.83,0,0,1,1.16-.4,3.61,3.61,0,0,1,3.54,3.82c0,3-2.4,5-5,5.44a3.31,3.31,0,0,1-1.42-.36v2.7c0,1.48.16,1.6,1.7,1.74v.56H64.6v-.56c1.3-.14,1.46-.24,1.46-1.58v-9.1c0-1.2,0-1.28-1.32-1.46ZM67.64,63a2.9,2.9,0,0,0,1.9.78c1.74,0,2.86-1.46,2.86-3.7s-1.26-3.38-2.68-3.38a4,4,0,0,0-2.08.86Z" transform="translate(-0.64 -3.32)"/><path class="cls-1" d="M80.78,58.1c-.36-1.16-.88-2-2.1-2a1.21,1.21,0,0,0-1.24,1.3c0,.86.58,1.26,1.7,1.78,1.72.82,2.58,1.42,2.58,2.74,0,1.84-1.68,2.78-3.26,2.78a5.23,5.23,0,0,1-2.38-.56c-.1-.58-.28-1.68-.36-2.34l.58-.1c.36,1.28,1.06,2.32,2.46,2.32a1.33,1.33,0,0,0,1.4-1.36c0-.9-.54-1.36-1.6-1.88C77.16,60.14,76,59.5,76,58.06s1.24-2.58,3.12-2.58a10.29,10.29,0,0,1,1.92.26c.06.48.2,1.74.3,2.22Z" transform="translate(-0.64 -3.32)"/><path class="cls-1" d="M92.54,64a23,23,0,0,0-3.06.7V63.2a4.93,4.93,0,0,1-3.06,1.54c-1.34,0-2.5-.82-2.5-3V57.86c0-1.08-.16-1.2-.66-1.3l-.56-.1v-.52a27.16,27.16,0,0,0,2.86-.36c-.06.64-.06,1.6-.06,2.92v2.72c0,1.76.92,2.26,1.82,2.26a3.16,3.16,0,0,0,2.16-1V57.86c0-1.08-.24-1.22-.92-1.32l-.64-.08v-.52a28.33,28.33,0,0,0,3.14-.36v6.7c0,1,.16,1.14.92,1.18l.56,0Z" transform="translate(-0.64 -3.32)"/><path class="cls-1" d="M104.52,64.5v-.56c1.18-.12,1.32-.2,1.32-1.6V59c0-1.42-.48-2.32-1.72-2.32a3.65,3.65,0,0,0-2.22,1,8.23,8.23,0,0,1,.06.86v3.88c0,1.26.18,1.36,1.28,1.48v.56H99v-.56c1.24-.12,1.42-.2,1.42-1.52V59c0-1.48-.46-2.3-1.68-2.3a3.83,3.83,0,0,0-2.2,1v4.7c0,1.32.14,1.4,1.28,1.52v.56h-4.3v-.56c1.32-.12,1.44-.2,1.44-1.52V58.28c0-1.28-.08-1.36-1.2-1.56v-.5a10.74,10.74,0,0,0,2.78-.8V57A14,14,0,0,1,98,56a2.72,2.72,0,0,1,1.58-.52,2.34,2.34,0,0,1,2.18,1.64c.56-.44,1.08-.78,1.58-1.12a3,3,0,0,1,1.58-.52c1.56,0,2.52,1.12,2.52,3.08v3.86c0,1.34.12,1.4,1.26,1.52v.56Z" transform="translate(-0.64 -3.32)"/><path class="cls-1" d="M124.82,61.18c-.12.62-.72,2.7-.92,3.32h-9.3v-.56c1.82-.18,2-.28,2-2V54c0-1.7-.2-1.8-1.8-2V51.5h5.36v.56c-1.6.16-1.82.24-1.82,2v8.14c0,1.22.16,1.5,1.3,1.52l1.58,0c1,0,1.32-.12,1.78-.62A6.77,6.77,0,0,0,124.2,61Z" transform="translate(-0.64 -3.32)"/><path class="cls-1" d="M130.82,55.48A4.3,4.3,0,0,1,135.18,60a4.48,4.48,0,0,1-4.36,4.78,4.39,4.39,0,0,1-4.44-4.46A4.58,4.58,0,0,1,130.82,55.48Zm-.24.68c-1.22,0-2.32,1.18-2.32,3.5,0,2.54,1.12,4.38,2.76,4.38,1.24,0,2.28-.9,2.28-3.64C133.3,58.06,132.34,56.16,130.58,56.16Z" transform="translate(-0.64 -3.32)"/><path class="cls-1" d="M141.08,64.5h-4.6v-.56c1.26-.12,1.38-.22,1.38-1.52V58.26c0-1.32-.08-1.38-1.24-1.52v-.5a11.07,11.07,0,0,0,2.82-.82v2.2c.7-1,1.54-2.14,2.54-2.14a1,1,0,0,1,1.16,1,1.34,1.34,0,0,1-.68,1.1.39.39,0,0,1-.52,0,1.26,1.26,0,0,0-.9-.5c-.42,0-1.16.62-1.6,1.64V62.4c0,1.32.1,1.42,1.64,1.54Z" transform="translate(-0.64 -3.32)"/><path class="cls-1" d="M151.08,62.8a4.56,4.56,0,0,1-3.32,1.94,4,4,0,0,1-3.92-4.3,5.14,5.14,0,0,1,1.3-3.5,4.1,4.1,0,0,1,3-1.46,3.12,3.12,0,0,1,3.06,3.1c0,.4-.08.58-.4.66s-3,.26-5.34.34c-.06,2.68,1.58,3.78,3,3.78a3.38,3.38,0,0,0,2.32-1Zm-3.44-6.56c-.92,0-1.82.86-2.1,2.48,1.12,0,2.24,0,3.42-.06.36,0,.48-.1.48-.4A1.86,1.86,0,0,0,147.64,56.24Z" transform="translate(-0.64 -3.32)"/><path class="cls-1" d="M163.36,64.5v-.56c1.18-.12,1.32-.2,1.32-1.6V59c0-1.42-.48-2.32-1.72-2.32a3.65,3.65,0,0,0-2.22,1,8.23,8.23,0,0,1,.06.86v3.88c0,1.26.18,1.36,1.28,1.48v.56H157.8v-.56c1.24-.12,1.42-.2,1.42-1.52V59c0-1.48-.46-2.3-1.68-2.3a3.83,3.83,0,0,0-2.2,1v4.7c0,1.32.14,1.4,1.28,1.52v.56h-4.3v-.56c1.32-.12,1.44-.2,1.44-1.52V58.28c0-1.28-.08-1.36-1.2-1.56v-.5a10.74,10.74,0,0,0,2.78-.8V57a14,14,0,0,1,1.48-1,2.72,2.72,0,0,1,1.58-.52,2.34,2.34,0,0,1,2.18,1.64c.56-.44,1.08-.78,1.58-1.12a3,3,0,0,1,1.58-.52c1.56,0,2.52,1.12,2.52,3.08v3.86c0,1.34.12,1.4,1.26,1.52v.56Z" transform="translate(-0.64 -3.32)"/><path class="cls-1" d="M.64,88.5v-.56C1.9,87.82,2,87.72,2,86.36V82.24C2,81,2,80.92.78,80.72v-.48a13.1,13.1,0,0,0,2.84-.8v6.92c0,1.36.14,1.46,1.44,1.58v.56Zm2.08-11a1.09,1.09,0,0,1-1.06-1.06,1.08,1.08,0,0,1,1.08-1.1,1,1,0,0,1,1,1.1A1.06,1.06,0,0,1,2.72,77.48Z" transform="translate(-0.64 -3.32)"/><path class="cls-1" d="M5.9,80.14a13,13,0,0,0,2.9-.86v1.6l1.74-1a2.83,2.83,0,0,1,1.16-.4,3.61,3.61,0,0,1,3.54,3.82c0,3-2.4,5-5,5.44a3.31,3.31,0,0,1-1.42-.36v2.7c0,1.48.16,1.6,1.7,1.74v.56H5.76v-.56c1.3-.14,1.46-.24,1.46-1.58v-9.1c0-1.2,0-1.28-1.32-1.46ZM8.8,87a2.9,2.9,0,0,0,1.9.78c1.74,0,2.86-1.46,2.86-3.7s-1.26-3.38-2.68-3.38a4,4,0,0,0-2.08.86Z" transform="translate(-0.64 -3.32)"/><path class="cls-1" d="M21.94,82.1c-.36-1.16-.88-2-2.1-2a1.21,1.21,0,0,0-1.24,1.3c0,.86.58,1.26,1.7,1.78C22,84,22.88,84.64,22.88,86c0,1.84-1.68,2.78-3.26,2.78a5.23,5.23,0,0,1-2.38-.56c-.1-.58-.28-1.68-.36-2.34l.58-.1c.36,1.28,1.06,2.32,2.46,2.32a1.33,1.33,0,0,0,1.4-1.36c0-.9-.54-1.36-1.6-1.88-1.4-.68-2.54-1.32-2.54-2.76s1.24-2.58,3.12-2.58a10.29,10.29,0,0,1,1.92.26c.06.48.2,1.74.3,2.22Z" transform="translate(-0.64 -3.32)"/><path class="cls-1" d="M33.7,88a23,23,0,0,0-3.06.7V87.2a4.93,4.93,0,0,1-3.06,1.54c-1.34,0-2.5-.82-2.5-3V81.86c0-1.08-.16-1.2-.66-1.3l-.56-.1v-.52a27.16,27.16,0,0,0,2.86-.36c-.06.64-.06,1.6-.06,2.92v2.72c0,1.76.92,2.26,1.82,2.26a3.16,3.16,0,0,0,2.16-1V81.86c0-1.08-.24-1.22-.92-1.32l-.64-.08v-.52a28.33,28.33,0,0,0,3.14-.36v6.7c0,1,.16,1.14.92,1.18l.56,0Z" transform="translate(-0.64 -3.32)"/><path class="cls-1" d="M45.68,88.5v-.56c1.18-.12,1.32-.2,1.32-1.6V83c0-1.42-.48-2.32-1.72-2.32a3.65,3.65,0,0,0-2.22,1,8.23,8.23,0,0,1,.06.86v3.88c0,1.26.18,1.36,1.28,1.48v.56H40.12v-.56c1.24-.12,1.42-.2,1.42-1.52V83c0-1.48-.46-2.3-1.68-2.3a3.83,3.83,0,0,0-2.2,1v4.7c0,1.32.14,1.4,1.28,1.52v.56h-4.3v-.56c1.32-.12,1.44-.2,1.44-1.52V82.28c0-1.28-.08-1.36-1.2-1.56v-.5a10.74,10.74,0,0,0,2.78-.8V81a14,14,0,0,1,1.48-1,2.72,2.72,0,0,1,1.58-.52,2.34,2.34,0,0,1,2.18,1.64c.56-.44,1.08-.78,1.58-1.12a3,3,0,0,1,1.58-.52c1.56,0,2.52,1.12,2.52,3.08v3.86c0,1.34.12,1.4,1.26,1.52v.56Z" transform="translate(-0.64 -3.32)"/><path class="cls-1" d="M66,85.18c-.12.62-.72,2.7-.92,3.32h-9.3v-.56c1.82-.18,2-.28,2-2V78c0-1.7-.2-1.8-1.8-2V75.5H61.3v.56c-1.6.16-1.82.24-1.82,2v8.14c0,1.22.16,1.5,1.3,1.52l1.58,0c1,0,1.32-.12,1.78-.62A6.77,6.77,0,0,0,65.36,85Z" transform="translate(-0.64 -3.32)"/><path class="cls-1" d="M72,79.48A4.3,4.3,0,0,1,76.34,84,4.48,4.48,0,0,1,72,88.74a4.39,4.39,0,0,1-4.44-4.46A4.58,4.58,0,0,1,72,79.48Zm-.24.68c-1.22,0-2.32,1.18-2.32,3.5,0,2.54,1.12,4.38,2.76,4.38,1.24,0,2.28-.9,2.28-3.64C74.46,82.06,73.5,80.16,71.74,80.16Z" transform="translate(-0.64 -3.32)"/><path class="cls-1" d="M82.24,88.5h-4.6v-.56c1.26-.12,1.38-.22,1.38-1.52V82.26c0-1.32-.08-1.38-1.24-1.52v-.5a11.07,11.07,0,0,0,2.82-.82v2.2c.7-1,1.54-2.14,2.54-2.14a1,1,0,0,1,1.16,1,1.34,1.34,0,0,1-.68,1.1.39.39,0,0,1-.52,0,1.26,1.26,0,0,0-.9-.5c-.42,0-1.16.62-1.6,1.64V86.4c0,1.32.1,1.42,1.64,1.54Z" transform="translate(-0.64 -3.32)"/><path class="cls-1" d="M92.24,86.8a4.56,4.56,0,0,1-3.32,1.94A4,4,0,0,1,85,84.44a5.14,5.14,0,0,1,1.3-3.5,4.1,4.1,0,0,1,3-1.46,3.12,3.12,0,0,1,3.06,3.1c0,.4-.08.58-.4.66s-3,.26-5.34.34c-.06,2.68,1.58,3.78,3,3.78a3.38,3.38,0,0,0,2.32-1ZM88.8,80.24c-.92,0-1.82.86-2.1,2.48,1.12,0,2.24,0,3.42-.06.36,0,.48-.1.48-.4A1.86,1.86,0,0,0,88.8,80.24Z" transform="translate(-0.64 -3.32)"/><path class="cls-1" d="M104.52,88.5v-.56c1.18-.12,1.32-.2,1.32-1.6V83c0-1.42-.48-2.32-1.72-2.32a3.65,3.65,0,0,0-2.22,1,8.23,8.23,0,0,1,.06.86v3.88c0,1.26.18,1.36,1.28,1.48v.56H99v-.56c1.24-.12,1.42-.2,1.42-1.52V83c0-1.48-.46-2.3-1.68-2.3a3.83,3.83,0,0,0-2.2,1v4.7c0,1.32.14,1.4,1.28,1.52v.56h-4.3v-.56c1.32-.12,1.44-.2,1.44-1.52V82.28c0-1.28-.08-1.36-1.2-1.56v-.5a10.74,10.74,0,0,0,2.78-.8V81A14,14,0,0,1,98,80a2.72,2.72,0,0,1,1.58-.52,2.34,2.34,0,0,1,2.18,1.64c.56-.44,1.08-.78,1.58-1.12a3,3,0,0,1,1.58-.52c1.56,0,2.52,1.12,2.52,3.08v3.86c0,1.34.12,1.4,1.26,1.52v.56Z" transform="translate(-0.64 -3.32)"/><path class="cls-1" d="M114.52,88.5v-.56c1.26-.12,1.4-.22,1.4-1.58V82.24c0-1.24-.06-1.32-1.26-1.52v-.48a13.1,13.1,0,0,0,2.84-.8v6.92c0,1.36.14,1.46,1.44,1.58v.56Zm2.08-11a1.09,1.09,0,0,1-1.06-1.06,1.08,1.08,0,0,1,1.08-1.1,1,1,0,0,1,1,1.1A1.06,1.06,0,0,1,116.6,77.48Z" transform="translate(-0.64 -3.32)"/><path class="cls-1" d="M119.78,80.14a13,13,0,0,0,2.9-.86v1.6l1.74-1a2.83,2.83,0,0,1,1.16-.4,3.61,3.61,0,0,1,3.54,3.82c0,3-2.4,5-5,5.44a3.31,3.31,0,0,1-1.42-.36v2.7c0,1.48.16,1.6,1.7,1.74v.56h-4.74v-.56c1.3-.14,1.46-.24,1.46-1.58v-9.1c0-1.2,0-1.28-1.32-1.46Zm2.9,6.84a2.9,2.9,0,0,0,1.9.78c1.74,0,2.86-1.46,2.86-3.7s-1.26-3.38-2.68-3.38a4,4,0,0,0-2.08.86Z" transform="translate(-0.64 -3.32)"/><path class="cls-1" d="M135.82,82.1c-.36-1.16-.88-2-2.1-2a1.21,1.21,0,0,0-1.24,1.3c0,.86.58,1.26,1.7,1.78,1.72.82,2.58,1.42,2.58,2.74,0,1.84-1.68,2.78-3.26,2.78a5.23,5.23,0,0,1-2.38-.56c-.1-.58-.28-1.68-.36-2.34l.58-.1c.36,1.28,1.06,2.32,2.46,2.32a1.33,1.33,0,0,0,1.4-1.36c0-.9-.54-1.36-1.6-1.88-1.4-.68-2.54-1.32-2.54-2.76s1.24-2.58,3.12-2.58a10.29,10.29,0,0,1,1.92.26c.06.48.2,1.74.3,2.22Z" transform="translate(-0.64 -3.32)"/><path class="cls-1" d="M147.58,88a23,23,0,0,0-3.06.7V87.2a4.93,4.93,0,0,1-3.06,1.54c-1.34,0-2.5-.82-2.5-3V81.86c0-1.08-.16-1.2-.66-1.3l-.56-.1v-.52a27.16,27.16,0,0,0,2.86-.36c-.06.64-.06,1.6-.06,2.92v2.72c0,1.76.92,2.26,1.82,2.26a3.16,3.16,0,0,0,2.16-1V81.86c0-1.08-.24-1.22-.92-1.32l-.64-.08v-.52a28.33,28.33,0,0,0,3.14-.36v6.7c0,1,.16,1.14.92,1.18l.56,0Z" transform="translate(-0.64 -3.32)"/><path class="cls-1" d="M159.56,88.5v-.56c1.18-.12,1.32-.2,1.32-1.6V83c0-1.42-.48-2.32-1.72-2.32a3.65,3.65,0,0,0-2.22,1,8.23,8.23,0,0,1,.06.86v3.88c0,1.26.18,1.36,1.28,1.48v.56H154v-.56c1.24-.12,1.42-.2,1.42-1.52V83c0-1.48-.46-2.3-1.68-2.3a3.83,3.83,0,0,0-2.2,1v4.7c0,1.32.14,1.4,1.28,1.52v.56h-4.3v-.56c1.32-.12,1.44-.2,1.44-1.52V82.28c0-1.28-.08-1.36-1.2-1.56v-.5a10.74,10.74,0,0,0,2.78-.8V81A14,14,0,0,1,153,80a2.72,2.72,0,0,1,1.58-.52,2.34,2.34,0,0,1,2.18,1.64c.56-.44,1.08-.78,1.58-1.12a3,3,0,0,1,1.58-.52c1.56,0,2.52,1.12,2.52,3.08v3.86c0,1.34.12,1.4,1.26,1.52v.56Z" transform="translate(-0.64 -3.32)"/><path class="cls-1" d="M10.94,109.18c-.12.62-.72,2.7-.92,3.32H.72v-.56c1.82-.18,2-.28,2-2V102c0-1.7-.2-1.8-1.8-2V99.5H6.26v.56c-1.6.16-1.82.24-1.82,2v8.14c0,1.22.16,1.5,1.3,1.52l1.58,0c1,0,1.32-.12,1.78-.62A6.77,6.77,0,0,0,10.32,109Z" transform="translate(-0.64 -3.32)"/><path class="cls-1" d="M16.94,103.48A4.3,4.3,0,0,1,21.3,108a4.48,4.48,0,0,1-4.36,4.78,4.39,4.39,0,0,1-4.44-4.46A4.58,4.58,0,0,1,16.94,103.48Zm-.24.68c-1.22,0-2.32,1.18-2.32,3.5,0,2.54,1.12,4.38,2.76,4.38,1.24,0,2.28-.9,2.28-3.64C19.42,106.06,18.46,104.16,16.7,104.16Z" transform="translate(-0.64 -3.32)"/><path class="cls-1" d="M27.2,112.5H22.6v-.56c1.26-.12,1.38-.22,1.38-1.52v-4.16c0-1.32-.08-1.38-1.24-1.52v-.5a11.07,11.07,0,0,0,2.82-.82v2.2c.7-1,1.54-2.14,2.54-2.14a1,1,0,0,1,1.16,1,1.34,1.34,0,0,1-.68,1.1.39.39,0,0,1-.52,0,1.26,1.26,0,0,0-.9-.5c-.42,0-1.16.62-1.6,1.64v3.76c0,1.32.1,1.42,1.64,1.54Z" transform="translate(-0.64 -3.32)"/><path class="cls-1" d="M37.2,110.8a4.56,4.56,0,0,1-3.32,1.94,4,4,0,0,1-3.92-4.3,5.14,5.14,0,0,1,1.3-3.5,4.1,4.1,0,0,1,3-1.46,3.12,3.12,0,0,1,3.06,3.1c0,.4-.08.58-.4.66s-3,.26-5.34.34c-.06,2.68,1.58,3.78,3,3.78a3.38,3.38,0,0,0,2.32-1Zm-3.44-6.56c-.92,0-1.82.86-2.1,2.48,1.12,0,2.24,0,3.42-.06.36,0,.48-.1.48-.4A1.86,1.86,0,0,0,33.76,104.24Z" transform="translate(-0.64 -3.32)"/><path class="cls-1" d="M49.48,112.5v-.56c1.18-.12,1.32-.2,1.32-1.6V107c0-1.42-.48-2.32-1.72-2.32a3.65,3.65,0,0,0-2.22,1,8.23,8.23,0,0,1,.06.86v3.88c0,1.26.18,1.36,1.28,1.48v.56H43.92v-.56c1.24-.12,1.42-.2,1.42-1.52V107c0-1.48-.46-2.3-1.68-2.3a3.83,3.83,0,0,0-2.2,1v4.7c0,1.32.14,1.4,1.28,1.52v.56h-4.3v-.56c1.32-.12,1.44-.2,1.44-1.52v-4.14c0-1.28-.08-1.36-1.2-1.56v-.5a10.74,10.74,0,0,0,2.78-.8V105a14,14,0,0,1,1.48-1,2.72,2.72,0,0,1,1.58-.52,2.34,2.34,0,0,1,2.18,1.64c.56-.44,1.08-.78,1.58-1.12a3,3,0,0,1,1.58-.52c1.56,0,2.52,1.12,2.52,3.08v3.86c0,1.34.12,1.4,1.26,1.52v.56Z" transform="translate(-0.64 -3.32)"/><path class="cls-1" d="M59.48,112.5v-.56c1.26-.12,1.4-.22,1.4-1.58v-4.12c0-1.24-.06-1.32-1.26-1.52v-.48a13.1,13.1,0,0,0,2.84-.8v6.92c0,1.36.14,1.46,1.44,1.58v.56Zm2.08-11a1.09,1.09,0,0,1-1.06-1.06,1.08,1.08,0,0,1,1.08-1.1,1,1,0,0,1,1,1.1A1.06,1.06,0,0,1,61.56,101.48Z" transform="translate(-0.64 -3.32)"/><path class="cls-1" d="M64.74,104.14a13,13,0,0,0,2.9-.86v1.6l1.74-1a2.83,2.83,0,0,1,1.16-.4,3.61,3.61,0,0,1,3.54,3.82c0,3-2.4,5-5,5.44a3.31,3.31,0,0,1-1.42-.36v2.7c0,1.48.16,1.6,1.7,1.74v.56H64.6v-.56c1.3-.14,1.46-.24,1.46-1.58v-9.1c0-1.2,0-1.28-1.32-1.46Zm2.9,6.84a2.9,2.9,0,0,0,1.9.78c1.74,0,2.86-1.46,2.86-3.7s-1.26-3.38-2.68-3.38a4,4,0,0,0-2.08.86Z" transform="translate(-0.64 -3.32)"/><path class="cls-1" d="M80.78,106.1c-.36-1.16-.88-2-2.1-2a1.21,1.21,0,0,0-1.24,1.3c0,.86.58,1.26,1.7,1.78,1.72.82,2.58,1.42,2.58,2.74,0,1.84-1.68,2.78-3.26,2.78a5.23,5.23,0,0,1-2.38-.56c-.1-.58-.28-1.68-.36-2.34l.58-.1c.36,1.28,1.06,2.32,2.46,2.32a1.33,1.33,0,0,0,1.4-1.36c0-.9-.54-1.36-1.6-1.88-1.4-.68-2.54-1.32-2.54-2.76s1.24-2.58,3.12-2.58a10.29,10.29,0,0,1,1.92.26c.06.48.2,1.74.3,2.22Z" transform="translate(-0.64 -3.32)"/><path class="cls-1" d="M92.54,112a23,23,0,0,0-3.06.7V111.2a4.93,4.93,0,0,1-3.06,1.54c-1.34,0-2.5-.82-2.5-3v-3.88c0-1.08-.16-1.2-.66-1.3l-.56-.1v-.52a27.16,27.16,0,0,0,2.86-.36c-.06.64-.06,1.6-.06,2.92v2.72c0,1.76.92,2.26,1.82,2.26a3.16,3.16,0,0,0,2.16-1v-4.66c0-1.08-.24-1.22-.92-1.32l-.64-.08v-.52a28.33,28.33,0,0,0,3.14-.36v6.7c0,1,.16,1.14.92,1.18l.56,0Z" transform="translate(-0.64 -3.32)"/><path class="cls-1" d="M104.52,112.5v-.56c1.18-.12,1.32-.2,1.32-1.6V107c0-1.42-.48-2.32-1.72-2.32a3.65,3.65,0,0,0-2.22,1,8.23,8.23,0,0,1,.06.86v3.88c0,1.26.18,1.36,1.28,1.48v.56H99v-.56c1.24-.12,1.42-.2,1.42-1.52V107c0-1.48-.46-2.3-1.68-2.3a3.83,3.83,0,0,0-2.2,1v4.7c0,1.32.14,1.4,1.28,1.52v.56h-4.3v-.56c1.32-.12,1.44-.2,1.44-1.52v-4.14c0-1.28-.08-1.36-1.2-1.56v-.5a10.74,10.74,0,0,0,2.78-.8V105A14,14,0,0,1,98,104a2.72,2.72,0,0,1,1.58-.52,2.34,2.34,0,0,1,2.18,1.64c.56-.44,1.08-.78,1.58-1.12a3,3,0,0,1,1.58-.52c1.56,0,2.52,1.12,2.52,3.08v3.86c0,1.34.12,1.4,1.26,1.52v.56Z" transform="translate(-0.64 -3.32)"/><path class="cls-1" d="M124.82,109.18c-.12.62-.72,2.7-.92,3.32h-9.3v-.56c1.82-.18,2-.28,2-2V102c0-1.7-.2-1.8-1.8-2V99.5h5.36v.56c-1.6.16-1.82.24-1.82,2v8.14c0,1.22.16,1.5,1.3,1.52l1.58,0c1,0,1.32-.12,1.78-.62A6.77,6.77,0,0,0,124.2,109Z" transform="translate(-0.64 -3.32)"/><path class="cls-1" d="M130.82,103.48a4.3,4.3,0,0,1,4.36,4.48,4.48,4.48,0,0,1-4.36,4.78,4.39,4.39,0,0,1-4.44-4.46A4.58,4.58,0,0,1,130.82,103.48Zm-.24.68c-1.22,0-2.32,1.18-2.32,3.5,0,2.54,1.12,4.38,2.76,4.38,1.24,0,2.28-.9,2.28-3.64C133.3,106.06,132.34,104.16,130.58,104.16Z" transform="translate(-0.64 -3.32)"/><path class="cls-1" d="M141.08,112.5h-4.6v-.56c1.26-.12,1.38-.22,1.38-1.52v-4.16c0-1.32-.08-1.38-1.24-1.52v-.5a11.07,11.07,0,0,0,2.82-.82v2.2c.7-1,1.54-2.14,2.54-2.14a1,1,0,0,1,1.16,1,1.34,1.34,0,0,1-.68,1.1.39.39,0,0,1-.52,0,1.26,1.26,0,0,0-.9-.5c-.42,0-1.16.62-1.6,1.64v3.76c0,1.32.1,1.42,1.64,1.54Z" transform="translate(-0.64 -3.32)"/><path class="cls-1" d="M151.08,110.8a4.56,4.56,0,0,1-3.32,1.94,4,4,0,0,1-3.92-4.3,5.14,5.14,0,0,1,1.3-3.5,4.1,4.1,0,0,1,3-1.46,3.12,3.12,0,0,1,3.06,3.1c0,.4-.08.58-.4.66s-3,.26-5.34.34c-.06,2.68,1.58,3.78,3,3.78a3.38,3.38,0,0,0,2.32-1Zm-3.44-6.56c-.92,0-1.82.86-2.1,2.48,1.12,0,2.24,0,3.42-.06.36,0,.48-.1.48-.4A1.86,1.86,0,0,0,147.64,104.24Z" transform="translate(-0.64 -3.32)"/><path class="cls-1" d="M163.36,112.5v-.56c1.18-.12,1.32-.2,1.32-1.6V107c0-1.42-.48-2.32-1.72-2.32a3.65,3.65,0,0,0-2.22,1,8.23,8.23,0,0,1,.06.86v3.88c0,1.26.18,1.36,1.28,1.48v.56H157.8v-.56c1.24-.12,1.42-.2,1.42-1.52V107c0-1.48-.46-2.3-1.68-2.3a3.83,3.83,0,0,0-2.2,1v4.7c0,1.32.14,1.4,1.28,1.52v.56h-4.3v-.56c1.32-.12,1.44-.2,1.44-1.52v-4.14c0-1.28-.08-1.36-1.2-1.56v-.5a10.74,10.74,0,0,0,2.78-.8V105a14,14,0,0,1,1.48-1,2.72,2.72,0,0,1,1.58-.52,2.34,2.34,0,0,1,2.18,1.64c.56-.44,1.08-.78,1.58-1.12a3,3,0,0,1,1.58-.52c1.56,0,2.52,1.12,2.52,3.08v3.86c0,1.34.12,1.4,1.26,1.52v.56Z" transform="translate(-0.64 -3.32)"/><path class="cls-1" d="M.64,136.5v-.56c1.26-.12,1.4-.22,1.4-1.58v-4.12C2,129,2,128.92.78,128.72v-.48a13.1,13.1,0,0,0,2.84-.8v6.92c0,1.36.14,1.46,1.44,1.58v.56Zm2.08-11a1.09,1.09,0,0,1-1.06-1.06,1.08,1.08,0,0,1,1.08-1.1,1,1,0,0,1,1,1.1A1.06,1.06,0,0,1,2.72,125.48Z" transform="translate(-0.64 -3.32)"/><path class="cls-1" d="M5.9,128.14a13,13,0,0,0,2.9-.86v1.6l1.74-1a2.83,2.83,0,0,1,1.16-.4,3.61,3.61,0,0,1,3.54,3.82c0,3-2.4,5-5,5.44a3.31,3.31,0,0,1-1.42-.36v2.7c0,1.48.16,1.6,1.7,1.74v.56H5.76v-.56c1.3-.14,1.46-.24,1.46-1.58v-9.1c0-1.2,0-1.28-1.32-1.46ZM8.8,135a2.9,2.9,0,0,0,1.9.78c1.74,0,2.86-1.46,2.86-3.7s-1.26-3.38-2.68-3.38a4,4,0,0,0-2.08.86Z" transform="translate(-0.64 -3.32)"/><path class="cls-1" d="M21.94,130.1c-.36-1.16-.88-2-2.1-2a1.21,1.21,0,0,0-1.24,1.3c0,.86.58,1.26,1.7,1.78,1.72.82,2.58,1.42,2.58,2.74,0,1.84-1.68,2.78-3.26,2.78a5.23,5.23,0,0,1-2.38-.56c-.1-.58-.28-1.68-.36-2.34l.58-.1c.36,1.28,1.06,2.32,2.46,2.32a1.33,1.33,0,0,0,1.4-1.36c0-.9-.54-1.36-1.6-1.88-1.4-.68-2.54-1.32-2.54-2.76s1.24-2.58,3.12-2.58a10.29,10.29,0,0,1,1.92.26c.06.48.2,1.74.3,2.22Z" transform="translate(-0.64 -3.32)"/><path class="cls-1" d="M33.7,136a23,23,0,0,0-3.06.7V135.2a4.93,4.93,0,0,1-3.06,1.54c-1.34,0-2.5-.82-2.5-3v-3.88c0-1.08-.16-1.2-.66-1.3l-.56-.1v-.52a27.16,27.16,0,0,0,2.86-.36c-.06.64-.06,1.6-.06,2.92v2.72c0,1.76.92,2.26,1.82,2.26a3.16,3.16,0,0,0,2.16-1v-4.66c0-1.08-.24-1.22-.92-1.32l-.64-.08v-.52a28.33,28.33,0,0,0,3.14-.36v6.7c0,1,.16,1.14.92,1.18l.56,0Z" transform="translate(-0.64 -3.32)"/><path class="cls-1" d="M45.68,136.5v-.56c1.18-.12,1.32-.2,1.32-1.6V131c0-1.42-.48-2.32-1.72-2.32a3.65,3.65,0,0,0-2.22,1,8.23,8.23,0,0,1,.06.86v3.88c0,1.26.18,1.36,1.28,1.48v.56H40.12v-.56c1.24-.12,1.42-.2,1.42-1.52V131c0-1.48-.46-2.3-1.68-2.3a3.83,3.83,0,0,0-2.2,1v4.7c0,1.32.14,1.4,1.28,1.52v.56h-4.3v-.56c1.32-.12,1.44-.2,1.44-1.52v-4.14c0-1.28-.08-1.36-1.2-1.56v-.5a10.74,10.74,0,0,0,2.78-.8V129a14,14,0,0,1,1.48-1,2.72,2.72,0,0,1,1.58-.52,2.34,2.34,0,0,1,2.18,1.64c.56-.44,1.08-.78,1.58-1.12a3,3,0,0,1,1.58-.52c1.56,0,2.52,1.12,2.52,3.08v3.86c0,1.34.12,1.4,1.26,1.52v.56Z" transform="translate(-0.64 -3.32)"/><path class="cls-1" d="M66,133.18c-.12.62-.72,2.7-.92,3.32h-9.3v-.56c1.82-.18,2-.28,2-2V126c0-1.7-.2-1.8-1.8-2v-.56H61.3v.56c-1.6.16-1.82.24-1.82,2v8.14c0,1.22.16,1.5,1.3,1.52l1.58,0c1,0,1.32-.12,1.78-.62A6.77,6.77,0,0,0,65.36,133Z" transform="translate(-0.64 -3.32)"/><path class="cls-1" d="M72,127.48A4.3,4.3,0,0,1,76.34,132,4.48,4.48,0,0,1,72,136.74a4.39,4.39,0,0,1-4.44-4.46A4.58,4.58,0,0,1,72,127.48Zm-.24.68c-1.22,0-2.32,1.18-2.32,3.5,0,2.54,1.12,4.38,2.76,4.38,1.24,0,2.28-.9,2.28-3.64C74.46,130.06,73.5,128.16,71.74,128.16Z" transform="translate(-0.64 -3.32)"/><path class="cls-1" d="M82.24,136.5h-4.6v-.56c1.26-.12,1.38-.22,1.38-1.52v-4.16c0-1.32-.08-1.38-1.24-1.52v-.5a11.07,11.07,0,0,0,2.82-.82v2.2c.7-1,1.54-2.14,2.54-2.14a1,1,0,0,1,1.16,1,1.34,1.34,0,0,1-.68,1.1.39.39,0,0,1-.52,0,1.26,1.26,0,0,0-.9-.5c-.42,0-1.16.62-1.6,1.64v3.76c0,1.32.1,1.42,1.64,1.54Z" transform="translate(-0.64 -3.32)"/><path class="cls-1" d="M92.24,134.8a4.56,4.56,0,0,1-3.32,1.94,4,4,0,0,1-3.92-4.3,5.14,5.14,0,0,1,1.3-3.5,4.1,4.1,0,0,1,3-1.46,3.12,3.12,0,0,1,3.06,3.1c0,.4-.08.58-.4.66s-3,.26-5.34.34c-.06,2.68,1.58,3.78,3,3.78a3.38,3.38,0,0,0,2.32-1Zm-3.44-6.56c-.92,0-1.82.86-2.1,2.48,1.12,0,2.24,0,3.42-.06.36,0,.48-.1.48-.4A1.86,1.86,0,0,0,88.8,128.24Z" transform="translate(-0.64 -3.32)"/><path class="cls-1" d="M104.52,136.5v-.56c1.18-.12,1.32-.2,1.32-1.6V131c0-1.42-.48-2.32-1.72-2.32a3.65,3.65,0,0,0-2.22,1,8.23,8.23,0,0,1,.06.86v3.88c0,1.26.18,1.36,1.28,1.48v.56H99v-.56c1.24-.12,1.42-.2,1.42-1.52V131c0-1.48-.46-2.3-1.68-2.3a3.83,3.83,0,0,0-2.2,1v4.7c0,1.32.14,1.4,1.28,1.52v.56h-4.3v-.56c1.32-.12,1.44-.2,1.44-1.52v-4.14c0-1.28-.08-1.36-1.2-1.56v-.5a10.74,10.74,0,0,0,2.78-.8V129A14,14,0,0,1,98,128a2.72,2.72,0,0,1,1.58-.52,2.34,2.34,0,0,1,2.18,1.64c.56-.44,1.08-.78,1.58-1.12a3,3,0,0,1,1.58-.52c1.56,0,2.52,1.12,2.52,3.08v3.86c0,1.34.12,1.4,1.26,1.52v.56Z" transform="translate(-0.64 -3.32)"/><path class="cls-1" d="M114.52,136.5v-.56c1.26-.12,1.4-.22,1.4-1.58v-4.12c0-1.24-.06-1.32-1.26-1.52v-.48a13.1,13.1,0,0,0,2.84-.8v6.92c0,1.36.14,1.46,1.44,1.58v.56Zm2.08-11a1.09,1.09,0,0,1-1.06-1.06,1.08,1.08,0,0,1,1.08-1.1,1,1,0,0,1,1,1.1A1.06,1.06,0,0,1,116.6,125.48Z" transform="translate(-0.64 -3.32)"/><path class="cls-1" d="M119.78,128.14a13,13,0,0,0,2.9-.86v1.6l1.74-1a2.83,2.83,0,0,1,1.16-.4,3.61,3.61,0,0,1,3.54,3.82c0,3-2.4,5-5,5.44a3.31,3.31,0,0,1-1.42-.36v2.7c0,1.48.16,1.6,1.7,1.74v.56h-4.74v-.56c1.3-.14,1.46-.24,1.46-1.58v-9.1c0-1.2,0-1.28-1.32-1.46Zm2.9,6.84a2.9,2.9,0,0,0,1.9.78c1.74,0,2.86-1.46,2.86-3.7s-1.26-3.38-2.68-3.38a4,4,0,0,0-2.08.86Z" transform="translate(-0.64 -3.32)"/><path class="cls-1" d="M135.82,130.1c-.36-1.16-.88-2-2.1-2a1.21,1.21,0,0,0-1.24,1.3c0,.86.58,1.26,1.7,1.78,1.72.82,2.58,1.42,2.58,2.74,0,1.84-1.68,2.78-3.26,2.78a5.23,5.23,0,0,1-2.38-.56c-.1-.58-.28-1.68-.36-2.34l.58-.1c.36,1.28,1.06,2.32,2.46,2.32a1.33,1.33,0,0,0,1.4-1.36c0-.9-.54-1.36-1.6-1.88-1.4-.68-2.54-1.32-2.54-2.76s1.24-2.58,3.12-2.58a10.29,10.29,0,0,1,1.92.26c.06.48.2,1.74.3,2.22Z" transform="translate(-0.64 -3.32)"/><path class="cls-1" d="M147.58,136a23,23,0,0,0-3.06.7V135.2a4.93,4.93,0,0,1-3.06,1.54c-1.34,0-2.5-.82-2.5-3v-3.88c0-1.08-.16-1.2-.66-1.3l-.56-.1v-.52a27.16,27.16,0,0,0,2.86-.36c-.06.64-.06,1.6-.06,2.92v2.72c0,1.76.92,2.26,1.82,2.26a3.16,3.16,0,0,0,2.16-1v-4.66c0-1.08-.24-1.22-.92-1.32l-.64-.08v-.52a28.33,28.33,0,0,0,3.14-.36v6.7c0,1,.16,1.14.92,1.18l.56,0Z" transform="translate(-0.64 -3.32)"/><path class="cls-1" d="M159.56,136.5v-.56c1.18-.12,1.32-.2,1.32-1.6V131c0-1.42-.48-2.32-1.72-2.32a3.65,3.65,0,0,0-2.22,1,8.23,8.23,0,0,1,.06.86v3.88c0,1.26.18,1.36,1.28,1.48v.56H154v-.56c1.24-.12,1.42-.2,1.42-1.52V131c0-1.48-.46-2.3-1.68-2.3a3.83,3.83,0,0,0-2.2,1v4.7c0,1.32.14,1.4,1.28,1.52v.56h-4.3v-.56c1.32-.12,1.44-.2,1.44-1.52v-4.14c0-1.28-.08-1.36-1.2-1.56v-.5a10.74,10.74,0,0,0,2.78-.8V129a14,14,0,0,1,1.48-1,2.72,2.72,0,0,1,1.58-.52,2.34,2.34,0,0,1,2.18,1.64c.56-.44,1.08-.78,1.58-1.12a3,3,0,0,1,1.58-.52c1.56,0,2.52,1.12,2.52,3.08v3.86c0,1.34.12,1.4,1.26,1.52v.56Z" transform="translate(-0.64 -3.32)"/><path class="cls-1" d="M10.94,157.18c-.12.62-.72,2.7-.92,3.32H.72v-.56c1.82-.18,2-.28,2-2V150c0-1.7-.2-1.8-1.8-2v-.56H6.26v.56c-1.6.16-1.82.24-1.82,2v8.14c0,1.22.16,1.5,1.3,1.52l1.58,0c1,0,1.32-.12,1.78-.62A6.77,6.77,0,0,0,10.32,157Z" transform="translate(-0.64 -3.32)"/><path class="cls-1" d="M16.94,151.48A4.3,4.3,0,0,1,21.3,156a4.48,4.48,0,0,1-4.36,4.78,4.39,4.39,0,0,1-4.44-4.46A4.58,4.58,0,0,1,16.94,151.48Zm-.24.68c-1.22,0-2.32,1.18-2.32,3.5,0,2.54,1.12,4.38,2.76,4.38,1.24,0,2.28-.9,2.28-3.64C19.42,154.06,18.46,152.16,16.7,152.16Z" transform="translate(-0.64 -3.32)"/><path class="cls-1" d="M27.2,160.5H22.6v-.56c1.26-.12,1.38-.22,1.38-1.52v-4.16c0-1.32-.08-1.38-1.24-1.52v-.5a11.07,11.07,0,0,0,2.82-.82v2.2c.7-1,1.54-2.14,2.54-2.14a1,1,0,0,1,1.16,1,1.34,1.34,0,0,1-.68,1.1.39.39,0,0,1-.52,0,1.26,1.26,0,0,0-.9-.5c-.42,0-1.16.62-1.6,1.64v3.76c0,1.32.1,1.42,1.64,1.54Z" transform="translate(-0.64 -3.32)"/><path class="cls-1" d="M37.2,158.8a4.56,4.56,0,0,1-3.32,1.94,4,4,0,0,1-3.92-4.3,5.14,5.14,0,0,1,1.3-3.5,4.1,4.1,0,0,1,3-1.46,3.12,3.12,0,0,1,3.06,3.1c0,.4-.08.58-.4.66s-3,.26-5.34.34c-.06,2.68,1.58,3.78,3,3.78a3.38,3.38,0,0,0,2.32-1Zm-3.44-6.56c-.92,0-1.82.86-2.1,2.48,1.12,0,2.24,0,3.42-.06.36,0,.48-.1.48-.4A1.86,1.86,0,0,0,33.76,152.24Z" transform="translate(-0.64 -3.32)"/><path class="cls-1" d="M49.48,160.5v-.56c1.18-.12,1.32-.2,1.32-1.6V155c0-1.42-.48-2.32-1.72-2.32a3.65,3.65,0,0,0-2.22,1,8.23,8.23,0,0,1,.06.86v3.88c0,1.26.18,1.36,1.28,1.48v.56H43.92v-.56c1.24-.12,1.42-.2,1.42-1.52V155c0-1.48-.46-2.3-1.68-2.3a3.83,3.83,0,0,0-2.2,1v4.7c0,1.32.14,1.4,1.28,1.52v.56h-4.3v-.56c1.32-.12,1.44-.2,1.44-1.52v-4.14c0-1.28-.08-1.36-1.2-1.56v-.5a10.74,10.74,0,0,0,2.78-.8V153a14,14,0,0,1,1.48-1,2.72,2.72,0,0,1,1.58-.52,2.34,2.34,0,0,1,2.18,1.64c.56-.44,1.08-.78,1.58-1.12a3,3,0,0,1,1.58-.52c1.56,0,2.52,1.12,2.52,3.08v3.86c0,1.34.12,1.4,1.26,1.52v.56Z" transform="translate(-0.64 -3.32)"/><path class="cls-1" d="M59.48,160.5v-.56c1.26-.12,1.4-.22,1.4-1.58v-4.12c0-1.24-.06-1.32-1.26-1.52v-.48a13.1,13.1,0,0,0,2.84-.8v6.92c0,1.36.14,1.46,1.44,1.58v.56Zm2.08-11a1.09,1.09,0,0,1-1.06-1.06,1.08,1.08,0,0,1,1.08-1.1,1,1,0,0,1,1,1.1A1.06,1.06,0,0,1,61.56,149.48Z" transform="translate(-0.64 -3.32)"/><path class="cls-1" d="M64.74,152.14a13,13,0,0,0,2.9-.86v1.6l1.74-1a2.83,2.83,0,0,1,1.16-.4,3.61,3.61,0,0,1,3.54,3.82c0,3-2.4,5-5,5.44a3.31,3.31,0,0,1-1.42-.36v2.7c0,1.48.16,1.6,1.7,1.74v.56H64.6v-.56c1.3-.14,1.46-.24,1.46-1.58v-9.1c0-1.2,0-1.28-1.32-1.46Zm2.9,6.84a2.9,2.9,0,0,0,1.9.78c1.74,0,2.86-1.46,2.86-3.7s-1.26-3.38-2.68-3.38a4,4,0,0,0-2.08.86Z" transform="translate(-0.64 -3.32)"/><path class="cls-1" d="M80.78,154.1c-.36-1.16-.88-2-2.1-2a1.21,1.21,0,0,0-1.24,1.3c0,.86.58,1.26,1.7,1.78,1.72.82,2.58,1.42,2.58,2.74,0,1.84-1.68,2.78-3.26,2.78a5.23,5.23,0,0,1-2.38-.56c-.1-.58-.28-1.68-.36-2.34l.58-.1c.36,1.28,1.06,2.32,2.46,2.32a1.33,1.33,0,0,0,1.4-1.36c0-.9-.54-1.36-1.6-1.88-1.4-.68-2.54-1.32-2.54-2.76s1.24-2.58,3.12-2.58a10.29,10.29,0,0,1,1.92.26c.06.48.2,1.74.3,2.22Z" transform="translate(-0.64 -3.32)"/><path class="cls-1" d="M92.54,160a23,23,0,0,0-3.06.7V159.2a4.93,4.93,0,0,1-3.06,1.54c-1.34,0-2.5-.82-2.5-3v-3.88c0-1.08-.16-1.2-.66-1.3l-.56-.1v-.52a27.16,27.16,0,0,0,2.86-.36c-.06.64-.06,1.6-.06,2.92v2.72c0,1.76.92,2.26,1.82,2.26a3.16,3.16,0,0,0,2.16-1v-4.66c0-1.08-.24-1.22-.92-1.32l-.64-.08v-.52a28.33,28.33,0,0,0,3.14-.36v6.7c0,1,.16,1.14.92,1.18l.56,0Z" transform="translate(-0.64 -3.32)"/><path class="cls-1" d="M104.52,160.5v-.56c1.18-.12,1.32-.2,1.32-1.6V155c0-1.42-.48-2.32-1.72-2.32a3.65,3.65,0,0,0-2.22,1,8.23,8.23,0,0,1,.06.86v3.88c0,1.26.18,1.36,1.28,1.48v.56H99v-.56c1.24-.12,1.42-.2,1.42-1.52V155c0-1.48-.46-2.3-1.68-2.3a3.83,3.83,0,0,0-2.2,1v4.7c0,1.32.14,1.4,1.28,1.52v.56h-4.3v-.56c1.32-.12,1.44-.2,1.44-1.52v-4.14c0-1.28-.08-1.36-1.2-1.56v-.5a10.74,10.74,0,0,0,2.78-.8V153A14,14,0,0,1,98,152a2.72,2.72,0,0,1,1.58-.52,2.34,2.34,0,0,1,2.18,1.64c.56-.44,1.08-.78,1.58-1.12a3,3,0,0,1,1.58-.52c1.56,0,2.52,1.12,2.52,3.08v3.86c0,1.34.12,1.4,1.26,1.52v.56Z" transform="translate(-0.64 -3.32)"/><path class="cls-1" d="M124.82,157.18c-.12.62-.72,2.7-.92,3.32h-9.3v-.56c1.82-.18,2-.28,2-2V150c0-1.7-.2-1.8-1.8-2v-.56h5.36v.56c-1.6.16-1.82.24-1.82,2v8.14c0,1.22.16,1.5,1.3,1.52l1.58,0c1,0,1.32-.12,1.78-.62A6.77,6.77,0,0,0,124.2,157Z" transform="translate(-0.64 -3.32)"/><path class="cls-1" d="M130.82,151.48a4.3,4.3,0,0,1,4.36,4.48,4.48,4.48,0,0,1-4.36,4.78,4.39,4.39,0,0,1-4.44-4.46A4.58,4.58,0,0,1,130.82,151.48Zm-.24.68c-1.22,0-2.32,1.18-2.32,3.5,0,2.54,1.12,4.38,2.76,4.38,1.24,0,2.28-.9,2.28-3.64C133.3,154.06,132.34,152.16,130.58,152.16Z" transform="translate(-0.64 -3.32)"/><path class="cls-1" d="M141.08,160.5h-4.6v-.56c1.26-.12,1.38-.22,1.38-1.52v-4.16c0-1.32-.08-1.38-1.24-1.52v-.5a11.07,11.07,0,0,0,2.82-.82v2.2c.7-1,1.54-2.14,2.54-2.14a1,1,0,0,1,1.16,1,1.34,1.34,0,0,1-.68,1.1.39.39,0,0,1-.52,0,1.26,1.26,0,0,0-.9-.5c-.42,0-1.16.62-1.6,1.64v3.76c0,1.32.1,1.42,1.64,1.54Z" transform="translate(-0.64 -3.32)"/><path class="cls-1" d="M151.08,158.8a4.56,4.56,0,0,1-3.32,1.94,4,4,0,0,1-3.92-4.3,5.14,5.14,0,0,1,1.3-3.5,4.1,4.1,0,0,1,3-1.46,3.12,3.12,0,0,1,3.06,3.1c0,.4-.08.58-.4.66s-3,.26-5.34.34c-.06,2.68,1.58,3.78,3,3.78a3.38,3.38,0,0,0,2.32-1Zm-3.44-6.56c-.92,0-1.82.86-2.1,2.48,1.12,0,2.24,0,3.42-.06.36,0,.48-.1.48-.4A1.86,1.86,0,0,0,147.64,152.24Z" transform="translate(-0.64 -3.32)"/><path class="cls-1" d="M163.36,160.5v-.56c1.18-.12,1.32-.2,1.32-1.6V155c0-1.42-.48-2.32-1.72-2.32a3.65,3.65,0,0,0-2.22,1,8.23,8.23,0,0,1,.06.86v3.88c0,1.26.18,1.36,1.28,1.48v.56H157.8v-.56c1.24-.12,1.42-.2,1.42-1.52V155c0-1.48-.46-2.3-1.68-2.3a3.83,3.83,0,0,0-2.2,1v4.7c0,1.32.14,1.4,1.28,1.52v.56h-4.3v-.56c1.32-.12,1.44-.2,1.44-1.52v-4.14c0-1.28-.08-1.36-1.2-1.56v-.5a10.74,10.74,0,0,0,2.78-.8V153a14,14,0,0,1,1.48-1,2.72,2.72,0,0,1,1.58-.52,2.34,2.34,0,0,1,2.18,1.64c.56-.44,1.08-.78,1.58-1.12a3,3,0,0,1,1.58-.52c1.56,0,2.52,1.12,2.52,3.08v3.86c0,1.34.12,1.4,1.26,1.52v.56Z" transform="translate(-0.64 -3.32)"/></g></g></svg>