<svg xmlns="http://www.w3.org/2000/svg" viewBox="0 0 59.42 84.3"><defs><style>.cls-1{fill:#cecccd;}</style></defs><title>Asset 49</title><g id="Layer_2" data-name="Layer 2"><g id="Layer_10" data-name="Layer 10"><path class="cls-1" d="M50.35,45.39v-37c5.59-1.79,9.07-4.3,9.07-7.08A3.54,3.54,0,0,0,59.17,0H.26A3.35,3.35,0,0,0,0,1.27C0,4.05,3.48,6.56,9.07,8.35v37C3.48,47.18,0,49.69,0,52.46a3.82,3.82,0,0,0,.12.89H25.61c0,.7,0,1.42,0,2.14,0,15.91.92,28.81,2.06,28.81s2.05-12.9,2.05-28.81V53.35H59.3a3.35,3.35,0,0,0,.12-.89C59.42,49.69,55.94,47.18,50.35,45.39Z"/></g></g></svg>