<svg xmlns="http://www.w3.org/2000/svg" viewBox="0 0 343.57 68.63"><defs><style>.cls-1{fill:#231f20;}</style></defs><title>Asset 16</title><g id="Layer_2" data-name="Layer 2"><g id="Layer_11" data-name="Layer 11"><path class="cls-1" d="M34.81,50.08c-.38,2.36-2.29,10.26-2.92,12.62H2.29V60.57c5.79-.68,6.3-1.06,6.3-7.52V22.87c0-6.46-.63-6.84-5.72-7.44V13.3H19.92v2.13c-5.09.6-5.79.91-5.79,7.44V53.81c0,4.63.51,5.7,4.14,5.77l5,.08c3.25,0,4.2-.46,5.67-2.36a27,27,0,0,0,3.88-7.82Z" transform="translate(-2.29 -12.61)"/><path class="cls-1" d="M53.91,28.42c8,0,13.87,7.22,13.87,17,0,12.31-7.63,18.16-13.87,18.16-8.78,0-14.13-8.43-14.13-17C39.78,34.27,47.86,28.42,53.91,28.42ZM53.15,31c-3.89,0-7.39,4.48-7.39,13.3C45.76,54,49.33,61,54.54,61c4,0,7.26-3.42,7.26-13.83C61.8,38.23,58.75,31,53.15,31Z" transform="translate(-2.29 -12.61)"/><path class="cls-1" d="M86.56,62.7H71.92V60.57c4-.45,4.39-.83,4.39-5.77V39c0-5-.25-5.25-3.94-5.78v-1.9a30.92,30.92,0,0,0,9-3.12v8.36c2.23-3.95,4.9-8.13,8.09-8.13a3.55,3.55,0,0,1,3.69,3.65A5.27,5.27,0,0,1,91,36.25a1.1,1.1,0,0,1-1.65-.15c-1-1.14-1.72-1.9-2.87-1.9-1.33,0-3.69,2.35-5.09,6.23V54.72c0,5,.32,5.4,5.22,5.85Z" transform="translate(-2.29 -12.61)"/><path class="cls-1" d="M118.39,56.24c-4.08,6.08-8.53,7.37-10.57,7.37-7.76,0-12.47-7.6-12.47-16.34A21.88,21.88,0,0,1,99.48,34c2.68-3.57,6.18-5.55,9.49-5.55,5.53,0,9.74,5.7,9.74,11.78-.07,1.52-.26,2.21-1.28,2.51-1.27.31-9.42,1-17,1.29-.19,10.19,5,14.37,9.54,14.37,2.61,0,5-1.29,7.39-3.88Zm-11-24.93c-2.93,0-5.79,3.27-6.68,9.43,3.56,0,7.12,0,10.88-.23,1.15,0,1.53-.38,1.53-1.52C113.23,35,111,31.31,107.44,31.31Z" transform="translate(-2.29 -12.61)"/><path class="cls-1" d="M157.46,62.7V60.57c3.76-.45,4.21-.76,4.21-6.08V41.8c0-5.4-1.53-8.82-5.48-8.82-2.42,0-4.64,1.6-7.06,4,.06.92.19,1.83.19,3.27V55c0,4.79.57,5.17,4.07,5.62V62.7H139.77V60.57c3.95-.45,4.52-.76,4.52-5.77V41.72c0-5.62-1.46-8.74-5.34-8.74-2.55,0-5,2.06-7,4V54.8c0,5,.45,5.32,4.08,5.77V62.7H122.33V60.57c4.2-.45,4.59-.76,4.59-5.77V39.06c0-4.86-.26-5.17-3.82-5.93v-1.9a30,30,0,0,0,8.84-3v6.16a45.58,45.58,0,0,1,4.71-4,7.74,7.74,0,0,1,5-2c3.06,0,5.67,2.28,6.94,6.23,1.78-1.67,3.43-3,5-4.25a8.61,8.61,0,0,1,5-2c5,0,8,4.26,8,11.71V54.8c0,5.09.39,5.32,4,5.77V62.7Z" transform="translate(-2.29 -12.61)"/><path class="cls-1" d="M189.29,62.7V60.57c4-.45,4.46-.83,4.46-6V38.91c0-4.71-.2-5-4-5.78V31.31a36.2,36.2,0,0,0,9-3v26.3c0,5.17.45,5.55,4.59,6V62.7Zm6.62-41.88c-1.78,0-3.37-1.9-3.37-4,0-2.43,1.59-4.18,3.43-4.18s3.25,1.75,3.25,4.18C199.22,18.92,197.76,20.82,195.91,20.82Z" transform="translate(-2.29 -12.61)"/><path class="cls-1" d="M206,30.93a36.18,36.18,0,0,0,9.23-3.27v6.08c.19-.15,5.28-3.65,5.54-3.8a8,8,0,0,1,3.69-1.52c7,0,11.26,7,11.26,14.52,0,11.55-7.63,18.85-16,20.67a9.15,9.15,0,0,1-4.52-1.37V72.5c0,5.63.51,6.08,5.41,6.62v2.13H205.59V79.12c4.13-.54,4.64-.91,4.64-6V38.53c0-4.56-.13-4.86-4.2-5.55Zm9.23,26a8.51,8.51,0,0,0,6,3c5.54,0,9.11-5.55,9.11-14.06,0-8.21-4-12.85-8.53-12.85-2.23,0-4.9,1.75-6.62,3.27Z" transform="translate(-2.29 -12.61)"/><path class="cls-1" d="M257.08,38.38c-1.15-4.41-2.8-7.45-6.69-7.45-2.22,0-3.94,1.9-3.94,4.94,0,3.27,1.84,4.79,5.41,6.76,5.47,3.12,8.21,5.4,8.21,10.42a10.17,10.17,0,0,1-10.38,10.56,14.45,14.45,0,0,1-7.57-2.13c-.32-2.2-.89-6.38-1.15-8.89l1.85-.38C244,57.08,246.19,61,250.65,61c2.42,0,4.45-2,4.45-5.17,0-3.42-1.72-5.17-5.09-7.14-4.45-2.59-8.08-5-8.08-10.49a9.49,9.49,0,0,1,9.93-9.81,27.76,27.76,0,0,1,6.11,1c.19,1.82.63,6.61.95,8.44Z" transform="translate(-2.29 -12.61)"/><path class="cls-1" d="M294.5,61a63.48,63.48,0,0,0-9.74,2.66V57.76c-3.44,3.42-6.23,5.85-9.74,5.85-4.26,0-7.95-3.11-7.95-11.4V37.47c0-4.11-.51-4.56-2.1-4.94l-1.78-.38v-2a72.35,72.35,0,0,0,9.1-1.37c-.19,2.43-.19,6.08-.19,11.1V50.24c0,6.68,2.92,8.58,5.79,8.58,2.35,0,4.71-1.21,6.87-3.64V37.47c0-4.11-.76-4.64-2.93-5l-2-.3v-2a75.34,75.34,0,0,0,10-1.37V54.26c0,3.8.51,4.34,2.93,4.49l1.78.07Z" transform="translate(-2.29 -12.61)"/><path class="cls-1" d="M332.63,62.7V60.57c3.75-.45,4.19-.76,4.19-6.08V41.8c0-5.4-1.52-8.82-5.47-8.82-2.42,0-4.64,1.6-7.06,4,.06.92.19,1.83.19,3.27V55c0,4.79.57,5.17,4.07,5.62V62.7H314.93V60.57c3.95-.45,4.52-.76,4.52-5.77V41.72c0-5.62-1.46-8.74-5.35-8.74-2.54,0-5,2.06-7,4V54.8c0,5,.45,5.32,4.08,5.77V62.7H297.49V60.57c4.2-.45,4.59-.76,4.59-5.77V39.06c0-4.86-.26-5.17-3.82-5.93v-1.9a30,30,0,0,0,8.84-3v6.16a45.58,45.58,0,0,1,4.71-4,7.74,7.74,0,0,1,5-2c3.06,0,5.67,2.28,6.94,6.23,1.78-1.67,3.43-3,5-4.25a8.61,8.61,0,0,1,5-2c5,0,8,4.26,8,11.71V54.8c0,5.09.38,5.32,4,5.77V62.7Z" transform="translate(-2.29 -12.61)"/></g></g></svg>