<svg xmlns="http://www.w3.org/2000/svg" viewBox="0 0 266.47 41.48"><defs><style>.cls-1{fill:#181818;}</style></defs><g id="Layer_2" data-name="Layer 2"><g id="Layer_1-2" data-name="Layer 1"><path class="cls-1" d="M0,40.75,12.07.76H23.16l12,40H25.49l-2.42-9.17H11.5L9.05,40.75ZM17.15,9.43l-4,15.15h8.28L17.56,9.43Z"/><path class="cls-1" d="M45.62,29c.17,2.61,2.47,5.07,6.84,5.07,4.14,0,6.11-1.93,6.11-4.57S56.68,25.9,53,25.08l-5.29-1.23c-5.55-1.17-10-4.4-10-11.37C37.78,4.48,44,0,52.4,0c9.05,0,14.4,5.39,14.49,12.22H58.52c-.17-2.49-2.11-4.93-6.15-4.93-3.54,0-5.57,1.79-5.57,4.43,0,2.14,1.79,3.46,5,4.13L57.26,17c5.37,1.11,10.26,4,10.26,11.54,0,7.83-5.6,12.92-15.39,12.92C40.69,41.48,37.06,34.83,37,29Z"/><path class="cls-1" d="M73,.76h16.6c6.89,0,11.52,3.66,11.52,9.82,0,5.09-3.07,8-6.69,8.73v.44c4.17.32,8.48,3.37,8.48,9.66,0,7.27-5.74,11.34-13,11.34H73ZM82,17h4.37c4.14,0,5.92-1.93,5.92-4.77s-1.81-4.63-5-4.63H82ZM82,33.9h4.86c4.85,0,6.86-2,6.86-5.28s-2-5.39-6-5.39H82Z"/><path class="cls-1" d="M119.09,40.75V.76h7.16l15.07,23.67h.3V.76H150v40h-7.13l-15.09-23.9h-.33v23.9Z"/><path class="cls-1" d="M182.47,40.75H157.31V.76h25.16V8.44H166.28v8.64h15.17v7.09H166.28v8.91h16.19Z"/><path class="cls-1" d="M194.76,40.75l-9.6-40h9.49l4.88,26.81h.39L206,.76h7.4l6.12,26.81H220L224.8.76h9.49l-9.6,40h-8.45l-6.34-25.4h-.32l-6.37,25.4Z"/><path class="cls-1" d="M244.58,29c.17,2.61,2.47,5.07,6.83,5.07,4.14,0,6.12-1.93,6.12-4.57s-1.89-3.63-5.54-4.45l-5.3-1.23c-5.54-1.17-10-4.4-10-11.37C236.73,4.48,243,0,251.36,0c9.05,0,14.4,5.39,14.48,12.22h-8.36c-.17-2.49-2.12-4.93-6.15-4.93-3.54,0-5.57,1.79-5.57,4.43,0,2.14,1.78,3.46,5,4.13L256.21,17c5.38,1.11,10.26,4,10.26,11.54,0,7.83-5.59,12.92-15.39,12.92-11.44,0-15.06-6.65-15.14-12.45Z"/></g></g></svg>