<svg xmlns="http://www.w3.org/2000/svg" viewBox="0 0 393.28 41.48"><defs><style>.cls-1{fill:#181818;}</style></defs><g id="Layer_2" data-name="Layer 2"><g id="Layer_1-2" data-name="Layer 1"><path class="cls-1" d="M14.71.76c11.71,0,16.92,7.5,16.92,19.84S26.28,40.75,14.71,40.75H0V.76ZM9.08,33.08h4.2c5.24,0,9-2.38,9-12.25,0-7-2-12.39-9-12.39H9.08Z"/><path class="cls-1" d="M37.06,40.75V.76h9.09v40Z"/><path class="cls-1" d="M60,29c.17,2.61,2.47,5.07,6.83,5.07C71,34.1,73,32.17,73,29.53s-1.89-3.63-5.54-4.45l-5.3-1.23c-5.54-1.17-10-4.4-10-11.37C52.15,4.48,58.41,0,66.78,0c9,0,14.4,5.39,14.48,12.22H72.89c-.16-2.49-2.11-4.93-6.14-4.93-3.54,0-5.57,1.79-5.57,4.43,0,2.14,1.78,3.46,5,4.13L71.63,17C77,18.13,81.89,21,81.89,28.56c0,7.83-5.59,12.92-15.39,12.92-11.44,0-15.06-6.65-15.14-12.45Z"/><path class="cls-1" d="M94.27,40.75V8.67H84.09V.76h29.44V8.67H103.32V40.75Z"/><path class="cls-1" d="M147.16,13.86a12.07,12.07,0,0,1-6.69,11.28l7.46,15.61h-10l-6.34-14.27h-5.13V40.75H117.5V.76h15.86C142.61.76,147.16,6.33,147.16,13.86Zm-15.23,5.77c3.52,0,5.88-1.91,5.88-5.68,0-4-2.56-5.92-5.79-5.92h-5.6v11.6Z"/><path class="cls-1" d="M152.89,40.75V.76H162v40Z"/><path class="cls-1" d="M177,23c0,6.8,2.57,10.52,7.1,10.52,4.09,0,6.53-3.11,6.56-7.33h8.67v1.17c0,8.47-6.42,14.15-15.31,14.15-10.43,0-16.27-7.17-16.27-18.57V18.69C167.71,7.24,173.55.06,184,.06c8.91,0,15.31,5.74,15.31,14.38v1.15h-8.67c0-4.37-2.47-7.53-6.56-7.53-4.53,0-7.1,3.75-7.1,10.63Z"/><path class="cls-1" d="M211.74,40.75V8.67H201.56V.76H231V8.67H220.8V40.75Z"/><path class="cls-1" d="M245.9,40.75V.76h7.16l15.06,23.67h.3V.76h8.4v40h-7.14l-15.09-23.9h-.32v23.9Z"/><path class="cls-1" d="M309.27,40.75H284.11V.76h25.16V8.44H293.09v8.64h15.17v7.09H293.09v8.91h16.18Z"/><path class="cls-1" d="M321.56,40.75,312,.76h9.49l4.89,26.81h.38L332.84.76h7.41l6.12,26.81h.41L351.61.76h9.49l-9.6,40H343l-6.33-25.4h-.33L330,40.75Z"/><path class="cls-1" d="M371.38,29c.17,2.61,2.47,5.07,6.84,5.07,4.14,0,6.11-1.93,6.11-4.57s-1.89-3.63-5.54-4.45l-5.29-1.23c-5.54-1.17-10-4.4-10-11.37,0-8,6.25-12.48,14.62-12.48,9,0,14.4,5.39,14.49,12.22h-8.37c-.17-2.49-2.11-4.93-6.15-4.93-3.54,0-5.57,1.79-5.57,4.43,0,2.14,1.79,3.46,5,4.13L383,17c5.37,1.11,10.26,4,10.26,11.54,0,7.83-5.6,12.92-15.39,12.92-11.44,0-15.06-6.65-15.15-12.45Z"/></g></g></svg>