<svg xmlns="http://www.w3.org/2000/svg" viewBox="0 0 261.1 40.72"><defs><style>.cls-1{fill:#181818;}</style></defs><g id="Layer_2" data-name="Layer 2"><g id="Layer_1-2" data-name="Layer 1"><path class="cls-1" d="M0,40V0H25V7.76H9.08v9.61H23.54v7.56H9.08V40Z"/><path class="cls-1" d="M55.14,40H30V0H55.14V7.68H39v8.64H54.13v7.09H39v8.9H55.14Z"/><path class="cls-1" d="M58,40,70.1,0H81.18l12,40H83.51L81.1,30.82H69.52L67.08,40ZM75.17,8.67l-4,15.15h8.28L75.58,8.67Z"/><path class="cls-1" d="M101.15,40V7.91H91V0h29.44V7.91h-10.2V40Z"/><path class="cls-1" d="M133.39,25c0,5.1,2.72,7.65,6.67,7.65S146.7,30,146.7,25V0h9.08V26.34c0,8.64-6,14.38-15.72,14.38S124.34,35,124.34,26.34V0h9Z"/><path class="cls-1" d="M192.29,13.1a12.07,12.07,0,0,1-6.69,11.28L193.06,40H183l-6.34-14.27h-5.13V40h-8.92V0h15.86C187.74,0,192.29,5.57,192.29,13.1Zm-15.23,5.77c3.52,0,5.88-1.91,5.88-5.69,0-3.95-2.56-5.91-5.79-5.91h-5.6v11.6Z"/><path class="cls-1" d="M223.18,40H198V0h25.15V7.68H207v8.64h15.17v7.09H207v8.9h16.18Z"/><path class="cls-1" d="M244.17,0c11.71,0,16.93,7.5,16.93,19.83S255.75,40,244.17,40H229.46V0Zm-5.63,32.31h4.2c5.24,0,9.06-2.37,9.06-12.24,0-7-2-12.39-9.06-12.39h-4.2Z"/></g></g></svg>