<svg xmlns="http://www.w3.org/2000/svg" viewBox="0 0 439.32 39.68"><defs><style>.cls-1{opacity:0.9;}.cls-2{fill:#231f20;}</style></defs><g id="Layer_2" data-name="Layer 2"><g id="Layer_1-2" data-name="Layer 1"><g class="cls-1"><path class="cls-2" d="M19.17,31.29H0V1H5.42V26.71H19.17Z"/><path class="cls-2" d="M21.55,20.16c0-7.18,4.28-11.59,10.77-11.59S43.09,13,43.09,20.16,38.85,31.73,32.32,31.73,21.55,27.38,21.55,20.16Zm16.23,0c0-4.73-2.14-7.44-5.46-7.44s-5.46,2.71-5.46,7.44,2.14,7.43,5.46,7.43S37.78,24.9,37.78,20.16Z"/><path class="cls-2" d="M46.47,9h5v3.88h.11a5.35,5.35,0,0,1,5.33-4.26,7.74,7.74,0,0,1,1.64.21v4.72a6.89,6.89,0,0,0-2.12-.29c-3,0-4.75,1.91-4.75,5v13H46.47Z"/><path class="cls-2" d="M81.11,24.63c-.68,4.2-4.58,7.1-9.85,7.1-6.68,0-10.71-4.39-10.71-11.49S64.62,8.57,71.05,8.57,81.32,13,81.32,19.72v1.7H65.76v.31c0,3.57,2.18,6,5.6,6,2.44,0,4.29-1.21,4.85-3.06ZM65.8,18H76.19c-.1-3.15-2.12-5.35-5.12-5.35S66,14.87,65.8,18Z"/><path class="cls-2" d="M84.47,9h5v3.86h.11a6.54,6.54,0,0,1,6.34-4.28,6,6,0,0,1,6.21,4.47h.13a7.18,7.18,0,0,1,6.93-4.47c4.39,0,7.26,3,7.26,7.41V31.29h-5.23v-14c0-2.73-1.42-4.28-4-4.28A4.18,4.18,0,0,0,103,17.53V31.29H97.93V17A3.69,3.69,0,0,0,94,13a4.31,4.31,0,0,0-4.29,4.64V31.29H84.47Z"/><path class="cls-2" d="M129.33,2.83a2.87,2.87,0,1,1,2.87,2.84A2.86,2.86,0,0,1,129.33,2.83ZM129.6,9h5.23V31.29H129.6Z"/><path class="cls-2" d="M160.93,20.16c0,7.09-3.57,11.48-9.15,11.48a7.4,7.4,0,0,1-7-4.05h-.11v11h-5.23V9h5.11v3.84h.1a7.52,7.52,0,0,1,7-4.22C157.34,8.65,160.93,13,160.93,20.16Zm-5.35,0c0-4.39-2.1-7.2-5.48-7.2s-5.42,2.87-5.44,7.2,2.18,7.2,5.44,7.2S155.58,24.57,155.58,20.16Z"/><path class="cls-2" d="M173,8.57c5.42,0,8.86,2.92,9,7.14h-4.88c-.21-2-1.7-3.3-4.11-3.3s-3.84,1.09-3.84,2.73c0,1.28.92,2.16,3.25,2.69l3.7.81c4.62,1,6.4,2.82,6.4,6.05,0,4.2-3.86,7-9.32,7-5.82,0-9.26-2.78-9.68-7.08h5.14c.4,2.16,1.89,3.25,4.54,3.25s4.11-1,4.11-2.7c0-1.35-.79-2.1-3.13-2.63l-3.69-.82c-4.26-.94-6.4-3-6.4-6.34C164.08,11.34,167.62,8.57,173,8.57Z"/><path class="cls-2" d="M205.21,31.29h-5V27.42h-.1a6.85,6.85,0,0,1-6.81,4.26c-4.82,0-7.89-3.13-7.89-8.27V9h5.23V22.36c0,3.19,1.55,4.91,4.49,4.91S200,25.13,200,21.9V9h5.23Z"/><path class="cls-2" d="M209.47,9h5v3.86h.11a6.54,6.54,0,0,1,6.34-4.28,6,6,0,0,1,6.21,4.47h.13a7.18,7.18,0,0,1,6.93-4.47c4.39,0,7.26,3,7.26,7.41V31.29h-5.23v-14c0-2.73-1.42-4.28-4-4.28A4.18,4.18,0,0,0,228,17.53V31.29h-5.08V17A3.69,3.69,0,0,0,219,13a4.31,4.31,0,0,0-4.29,4.64V31.29h-5.23Z"/><path class="cls-2" d="M274.17,31.29H255V1h5.42V26.71h13.75Z"/><path class="cls-2" d="M276.55,20.16c0-7.18,4.28-11.59,10.77-11.59S298.09,13,298.09,20.16s-4.24,11.57-10.77,11.57S276.55,27.38,276.55,20.16Zm16.23,0c0-4.73-2.14-7.44-5.46-7.44s-5.46,2.71-5.46,7.44,2.14,7.43,5.46,7.43S292.78,24.9,292.78,20.16Z"/><path class="cls-2" d="M301.47,9h5v3.82h.11a7.15,7.15,0,0,1,7-4.24c4.91,0,7.7,3.15,7.7,8.29V31.29h-5.22V18c0-3.15-1.47-4.91-4.45-4.91s-4.92,2.16-4.92,5.35v12.9h-5.23Z"/><path class="cls-2" d="M325.31,33h5.18c.57,1.71,2.48,2.86,5,2.86,3.4,0,5.35-1.91,5.35-4.75V27.32h-.12a7.54,7.54,0,0,1-7,4c-5.51,0-9.16-4.31-9.16-11.24s3.57-11.42,9.26-11.42a7.62,7.62,0,0,1,7,4.2h.09V9H346v21.9c0,5.31-4.26,8.75-10.75,8.75C329.78,39.68,325.83,36.87,325.31,33ZM340.8,20.09c0-4.32-2.16-7.13-5.5-7.13s-5.4,2.77-5.4,7.13,2.1,7.06,5.4,7.06S340.8,24.44,340.8,20.09Z"/><path class="cls-2" d="M367.41,31.29V5.56h-9.07V1h23.52V5.56h-9.05V31.29Z"/><path class="cls-2" d="M385.33,2.83a2.87,2.87,0,1,1,2.87,2.84A2.86,2.86,0,0,1,385.33,2.83ZM385.6,9h5.23V31.29H385.6Z"/><path class="cls-2" d="M402.15,3.82V9h4.2v4h-4.2V24.63c0,1.83.84,2.66,2.69,2.66a10.7,10.7,0,0,0,1.49-.1v4a14.1,14.1,0,0,1-2.71.21c-4.81,0-6.7-1.7-6.7-6V13.06h-3.19V9h3.19V3.82Z"/><path class="cls-2" d="M409.62,1h5.23v30.3h-5.23Z"/><path class="cls-2" d="M439.11,24.63c-.68,4.2-4.58,7.1-9.85,7.1-6.68,0-10.71-4.39-10.71-11.49s4.07-11.67,10.5-11.67S439.32,13,439.32,19.72v1.7H423.76v.31c0,3.57,2.18,6,5.6,6,2.44,0,4.29-1.21,4.85-3.06ZM423.8,18h10.39c-.1-3.15-2.12-5.35-5.12-5.35S424,14.87,423.8,18Z"/></g></g></g></svg>