<svg xmlns="http://www.w3.org/2000/svg" viewBox="0 0 287.95 95.53"><defs><style>.cls-1{opacity:0.9;}.cls-2{fill:#231f20;}</style></defs><g id="Layer_2" data-name="Layer 2"><g id="Layer_1-2" data-name="Layer 1"><g class="cls-1"><path class="cls-2" d="M21.8,32.74H1.73V1H7.4V28H21.8Z"/><path class="cls-2" d="M24.22,21.09C24.22,13.58,28.7,9,35.49,9s11.27,4.6,11.27,12.13S42.32,33.2,35.49,33.2,24.22,28.65,24.22,21.09Zm17,0c0-4.94-2.24-7.77-5.71-7.77s-5.71,2.83-5.71,7.77,2.24,7.78,5.71,7.78S41.2,26.06,41.2,21.09Z"/><path class="cls-2" d="M50.19,9.45h5.25v4.06h.11a5.59,5.59,0,0,1,5.58-4.46,7.59,7.59,0,0,1,1.71.22v5a6.83,6.83,0,0,0-2.22-.31c-3.09,0-5,2-5,5.27V32.74H50.19Z"/><path class="cls-2" d="M85.73,25.77c-.7,4.4-4.79,7.43-10.3,7.43-7,0-11.21-4.59-11.21-12S68.48,9,75.21,9,86,13.56,86,20.63v1.78H69.67v.33C69.67,26.48,72,29,75.54,29c2.54,0,4.48-1.27,5.07-3.21Zm-16-7H80.59c-.11-3.3-2.22-5.6-5.36-5.6S69.93,15.56,69.71,18.81Z"/><path class="cls-2" d="M89.19,9.45h5.25v4h.11A6.84,6.84,0,0,1,101.18,9a6.28,6.28,0,0,1,6.51,4.68h.13A7.51,7.51,0,0,1,115.07,9c4.59,0,7.6,3.1,7.6,7.75v16H117.2V18.11c0-2.86-1.49-4.49-4.17-4.49s-4.44,1.94-4.44,4.73V32.74h-5.32V17.82a3.86,3.86,0,0,0-4.13-4.2c-2.64,0-4.48,2.05-4.48,4.86V32.74H89.19Z"/><path class="cls-2" d="M136,3a3,3,0,1,1,3,3A3,3,0,0,1,136,3Zm.29,6.48h5.47V32.74h-5.47Z"/><path class="cls-2" d="M168.64,21.09c0,7.43-3.73,12-9.58,12a7.74,7.74,0,0,1-7.29-4.24h-.11V40.41h-5.47v-31h5.34v4h.1A7.88,7.88,0,0,1,159,9.05C164.88,9.05,168.64,13.65,168.64,21.09Zm-5.6,0c0-4.59-2.2-7.53-5.74-7.53s-5.67,3-5.69,7.53,2.29,7.54,5.69,7.54S163,25.71,163,21.09Z"/><path class="cls-2" d="M181.11,9c5.67,0,9.27,3.06,9.4,7.48h-5.1c-.22-2.11-1.78-3.45-4.3-3.45s-4,1.14-4,2.85c0,1.34,1,2.27,3.4,2.82l3.87.85c4.83,1.08,6.7,2.95,6.7,6.33,0,4.39-4,7.36-9.76,7.36-6.08,0-9.68-2.9-10.12-7.4h5.38c.42,2.26,2,3.4,4.74,3.4s4.31-1.1,4.31-2.83c0-1.41-.83-2.2-3.27-2.75l-3.87-.86c-4.46-1-6.7-3.18-6.7-6.63C171.77,11.87,175.48,9,181.11,9Z"/><path class="cls-2" d="M214.84,32.74h-5.27v-4h-.11a7.16,7.16,0,0,1-7.12,4.46c-5.06,0-8.26-3.28-8.26-8.66v-15h5.47v14c0,3.34,1.62,5.14,4.7,5.14s5.12-2.24,5.12-5.62V9.45h5.47Z"/><path class="cls-2" d="M219.19,9.45h5.25v4h.11A6.84,6.84,0,0,1,231.18,9a6.28,6.28,0,0,1,6.51,4.68h.13A7.51,7.51,0,0,1,245.07,9c4.59,0,7.6,3.1,7.6,7.75v16H247.2V18.11c0-2.86-1.49-4.49-4.17-4.49s-4.44,1.94-4.44,4.73V32.74h-5.32V17.82a3.86,3.86,0,0,0-4.13-4.2c-2.64,0-4.48,2.05-4.48,4.86V32.74h-5.47Z"/><path class="cls-2" d="M9.49,86.74V59.82H0V55H24.61v4.79H15.14V86.74Z"/><path class="cls-2" d="M28,57a3,3,0,1,1,3,3A3,3,0,0,1,28,57Zm.29,6.48h5.47V86.74H28.32Z"/><path class="cls-2" d="M45.17,58v5.45h4.4v4.22h-4.4v12.1c0,1.92.88,2.79,2.82,2.79a10,10,0,0,0,1.55-.11v4.18a15.07,15.07,0,0,1-2.83.22c-5,0-7-1.78-7-6.31V67.67H36.36V63.45H39.7V58Z"/><path class="cls-2" d="M53.34,55h5.47V86.74H53.34Z"/><path class="cls-2" d="M83.73,79.77c-.7,4.4-4.79,7.43-10.3,7.43-7,0-11.21-4.59-11.21-12S66.48,63,73.21,63,84,67.56,84,74.63v1.78H67.67v.33C67.67,80.48,70,83,73.54,83c2.54,0,4.48-1.27,5.07-3.21Zm-16-7H78.59c-.11-3.3-2.22-5.6-5.36-5.6S67.93,69.56,67.71,72.81Z"/><path class="cls-2" d="M116.8,86.74H96.73V55h5.67V82h14.4Z"/><path class="cls-2" d="M119.22,75.09c0-7.51,4.48-12.13,11.27-12.13s11.27,4.6,11.27,12.13S137.32,87.2,130.49,87.2,119.22,82.65,119.22,75.09Zm17,0c0-4.94-2.24-7.77-5.71-7.77s-5.71,2.83-5.71,7.77,2.24,7.78,5.71,7.78S136.2,80.06,136.2,75.09Z"/><path class="cls-2" d="M145.19,63.45h5.25v4h.11A7.47,7.47,0,0,1,157.86,63c5.15,0,8.07,3.29,8.07,8.68v15h-5.47V72.79c0-3.3-1.54-5.14-4.66-5.14s-5.14,2.26-5.14,5.6V86.74h-5.47Z"/><path class="cls-2" d="M170,88.5h5.43c.59,1.78,2.59,3,5.18,3,3.56,0,5.61-2,5.61-5V82.59h-.14a7.87,7.87,0,0,1-7.29,4.17c-5.76,0-9.58-4.5-9.58-11.75s3.74-12,9.69-12a8,8,0,0,1,7.34,4.4h.09v-4h5.36V86.37c0,5.55-4.46,9.16-11.25,9.16C174.69,95.53,170.56,92.58,170,88.5ZM186.23,75c0-4.53-2.27-7.47-5.76-7.47s-5.65,2.9-5.65,7.47,2.2,7.38,5.65,7.38S186.23,79.58,186.23,75Z"/><path class="cls-2" d="M213.49,86.74V59.82H204V55h24.61v4.79h-9.47V86.74Z"/><path class="cls-2" d="M232,57a3,3,0,1,1,3,3A3,3,0,0,1,232,57Zm.29,6.48h5.47V86.74h-5.47Z"/><path class="cls-2" d="M249.17,58v5.45h4.4v4.22h-4.4v12.1c0,1.92.88,2.79,2.82,2.79a10,10,0,0,0,1.55-.11v4.18a15.07,15.07,0,0,1-2.83.22c-5,0-7-1.78-7-6.31V67.67h-3.34V63.45h3.34V58Z"/><path class="cls-2" d="M257.34,55h5.47V86.74h-5.47Z"/><path class="cls-2" d="M287.73,79.77c-.7,4.4-4.79,7.43-10.3,7.43-7,0-11.21-4.59-11.21-12S270.48,63,277.21,63,288,67.56,288,74.63v1.78H271.67v.33c0,3.74,2.28,6.24,5.87,6.24,2.54,0,4.48-1.27,5.07-3.21Zm-16-7h10.88c-.11-3.3-2.22-5.6-5.36-5.6S271.93,69.56,271.71,72.81Z"/></g></g></g></svg>