<svg xmlns="http://www.w3.org/2000/svg" viewBox="0 0 365.19 41.48"><defs><style>.cls-1{fill:#181818;}</style></defs><g id="Layer_2" data-name="Layer 2"><g id="Layer_1-2" data-name="Layer 1"><path class="cls-1" d="M8.64,29c.17,2.61,2.47,5.07,6.83,5.07,4.15,0,6.12-1.93,6.12-4.57s-1.89-3.63-5.54-4.45l-5.3-1.23C5.21,22.68.8,19.45.8,12.48.8,4.48,7.05,0,15.42,0c9,0,14.4,5.39,14.49,12.22H21.54c-.17-2.49-2.12-4.93-6.15-4.93-3.54,0-5.57,1.79-5.57,4.43,0,2.14,1.79,3.46,5,4.13L20.28,17c5.37,1.11,10.26,4,10.26,11.54,0,7.83-5.6,12.92-15.4,12.92C3.7,41.48.08,34.83,0,29Z"/><path class="cls-1" d="M51.88.76C60.49.76,65,7.09,65,14.65S60.41,28.39,51.77,28.39H45.1V40.75H36.05V.76Zm-6.8,20.33h3.64c4.37,0,7.08-1.75,7.08-6.44,0-4.16-2.33-6.45-6-6.45H45.08Z"/><path class="cls-1" d="M68.2,18.54C68.2,7.18,74.38.06,85,.06s16.68,7.18,16.68,18.48V23.2c0,11.25-6.12,18.28-16.74,18.28S68.2,34.45,68.2,23.2Zm9.28,4.69c0,7,3,10.37,7.46,10.37s7.43-3.42,7.43-10.37v-4.8c0-6.92-3-10.52-7.43-10.52s-7.46,3.6-7.46,10.52Z"/><path class="cls-1" d="M137.07,13.86a12.08,12.08,0,0,1-6.7,11.28l7.46,15.61h-10l-6.34-14.27h-5.13V40.75h-8.91V.76h15.86C132.51.76,137.07,6.33,137.07,13.86Zm-15.23,5.77c3.51,0,5.87-1.91,5.87-5.68,0-4-2.55-5.92-5.79-5.92h-5.6v11.6Z"/><path class="cls-1" d="M149.66,40.75V8.67H139.48V.76h29.44V8.67H158.71V40.75Z"/><path class="cls-1" d="M179.48,29c.16,2.61,2.47,5.07,6.83,5.07,4.14,0,6.12-1.93,6.12-4.57s-1.89-3.63-5.54-4.45l-5.3-1.23c-5.54-1.17-10-4.4-10-11.37,0-8,6.26-12.48,14.62-12.48,9.06,0,14.41,5.39,14.49,12.22h-8.37c-.16-2.49-2.11-4.93-6.14-4.93-3.54,0-5.57,1.79-5.57,4.43,0,2.14,1.78,3.46,5,4.13L191.11,17c5.38,1.11,10.26,4,10.26,11.54,0,7.83-5.59,12.92-15.39,12.92-11.44,0-15.06-6.65-15.14-12.45Z"/><path class="cls-1" d="M217.8,40.75V.76H225L240,24.43h.3V.76h8.39v40h-7.13L226.5,16.85h-.33v23.9Z"/><path class="cls-1" d="M281.18,40.75H256V.76h25.16V8.44H265v8.64h15.18v7.09H265v8.91h16.19Z"/><path class="cls-1" d="M293.47,40.75l-9.6-40h9.49l4.88,26.81h.39L304.75.76h7.4l6.12,26.81h.41L323.51.76H333l-9.6,40H315l-6.34-25.4h-.32l-6.37,25.4Z"/><path class="cls-1" d="M343.29,29c.17,2.61,2.47,5.07,6.83,5.07,4.15,0,6.12-1.93,6.12-4.57s-1.89-3.63-5.54-4.45l-5.3-1.23c-5.54-1.17-9.95-4.4-9.95-11.37,0-8,6.25-12.48,14.62-12.48,9.05,0,14.4,5.39,14.48,12.22h-8.36C356,9.73,354.07,7.29,350,7.29c-3.54,0-5.57,1.79-5.57,4.43,0,2.14,1.78,3.46,5,4.13L354.92,17c5.38,1.11,10.27,4,10.27,11.54,0,7.83-5.6,12.92-15.4,12.92-11.44,0-15.06-6.65-15.14-12.45Z"/></g></g></svg>