<svg xmlns="http://www.w3.org/2000/svg" viewBox="0 0 329.33 50.3"><defs><style>.cls-1{opacity:0.7;}.cls-2{fill:#231f20;}</style></defs><g id="Layer_2" data-name="Layer 2"><g id="Layer_1-2" data-name="Layer 1"><g class="cls-1"><path class="cls-2" d="M11.12,16.91H.86V0H3V15h8.16Z"/><path class="cls-2" d="M12.32,10.82c0-3.89,2.27-6.31,5.65-6.31s5.63,2.42,5.63,6.31-2.27,6.3-5.63,6.3S12.32,14.7,12.32,10.82Zm9.21,0C21.53,8,20.12,6.3,18,6.3S14.39,8,14.39,10.82s1.42,4.51,3.58,4.51S21.53,13.69,21.53,10.82Z"/><path class="cls-2" d="M25.8,4.72h1.92v2h.05a3,3,0,0,1,2.95-2.2,5.74,5.74,0,0,1,.82.08v2a4.61,4.61,0,0,0-1.09-.11,2.58,2.58,0,0,0-2.61,2.86v7.59h-2Z"/><path class="cls-2" d="M42.84,13.42c-.35,2.13-2.41,3.7-5.07,3.7-3.49,0-5.62-2.42-5.62-6.26s2.16-6.35,5.52-6.35S43,6.9,43,10.59v.78H34.25v.11c0,2.34,1.37,3.87,3.56,3.87a2.94,2.94,0,0,0,3-1.93ZM34.26,9.77h6.62a3.25,3.25,0,0,0-3.24-3.49A3.43,3.43,0,0,0,34.26,9.77Z"/><path class="cls-2" d="M45.19,4.72h1.92v2h0a3.64,3.64,0,0,1,3.46-2.16A3.42,3.42,0,0,1,54,6.83h0A4.08,4.08,0,0,1,57.9,4.51a3.74,3.74,0,0,1,4,4v8.41h-2V9a2.37,2.37,0,0,0-2.53-2.64,2.69,2.69,0,0,0-2.76,2.84v7.75h-2V8.74A2.31,2.31,0,0,0,50,6.32a2.79,2.79,0,0,0-2.79,2.95v7.64h-2Z"/><path class="cls-2" d="M69.52,1.28A1.28,1.28,0,1,1,70.8,2.55,1.28,1.28,0,0,1,69.52,1.28Zm.26,3.44h2V16.91h-2Z"/><path class="cls-2" d="M85.85,10.82c0,3.82-2.1,6.3-5.17,6.3a4.29,4.29,0,0,1-3.88-2.19h0V21h-2V4.72h1.93V6.79h0a4.37,4.37,0,0,1,3.94-2.28C83.74,4.51,85.85,7,85.85,10.82Zm-2.08,0c0-2.76-1.36-4.52-3.53-4.52s-3.49,1.81-3.49,4.52,1.4,4.51,3.49,4.51S83.77,13.58,83.77,10.82Z"/><path class="cls-2" d="M92.31,4.51c2.67,0,4.46,1.57,4.54,3.73H94.9a2.32,2.32,0,0,0-2.59-2.06c-1.49,0-2.47.73-2.47,1.8,0,.84.62,1.42,2,1.75l1.93.47c2.46.59,3.36,1.55,3.36,3.3,0,2.12-2,3.62-4.73,3.62s-4.64-1.44-4.87-3.73h2c.24,1.4,1.18,2.07,2.83,2.07s2.67-.71,2.67-1.81c0-.88-.48-1.38-1.87-1.72l-1.93-.47c-2.3-.55-3.41-1.62-3.41-3.37C87.84,6,89.68,4.51,92.31,4.51Z"/><path class="cls-2" d="M109.37,16.91h-1.94v-2h0a4,4,0,0,1-3.87,2.19c-2.66,0-4.22-1.72-4.22-4.49V4.72h2v7.55c0,2,.92,3.05,2.81,3.05s3.18-1.36,3.18-3.44V4.72h2Z"/><path class="cls-2" d="M112.15,4.72h1.92v2h.05a3.63,3.63,0,0,1,3.45-2.16A3.43,3.43,0,0,1,121,6.83h0a4.08,4.08,0,0,1,3.82-2.32,3.73,3.73,0,0,1,4,4v8.41h-2V9a2.37,2.37,0,0,0-2.54-2.64,2.69,2.69,0,0,0-2.75,2.84v7.75h-2V8.74A2.31,2.31,0,0,0,117,6.32a2.79,2.79,0,0,0-2.79,2.95v7.64h-2Z"/><path class="cls-2" d="M136,10.82c0-3.82,2.09-6.31,5.16-6.31a4.28,4.28,0,0,1,3.88,2.19h0V0h2V16.91h-1.95V14.85h0a4.38,4.38,0,0,1-3.94,2.27C138.15,17.12,136,14.64,136,10.82Zm2.08,0c0,2.76,1.36,4.51,3.52,4.51s3.5-1.78,3.5-4.51-1.4-4.52-3.5-4.52S138.12,8.06,138.12,10.82Z"/><path class="cls-2" d="M149.47,10.82c0-3.89,2.27-6.31,5.65-6.31s5.63,2.42,5.63,6.31-2.27,6.3-5.63,6.3S149.47,14.7,149.47,10.82Zm9.21,0c0-2.87-1.41-4.52-3.56-4.52s-3.58,1.65-3.58,4.52,1.42,4.51,3.58,4.51S158.68,13.69,158.68,10.82Z"/><path class="cls-2" d="M163.05,0h2V16.91h-2Z"/><path class="cls-2" d="M167.39,10.82c0-3.89,2.28-6.31,5.65-6.31s5.64,2.42,5.64,6.31-2.27,6.3-5.64,6.3S167.39,14.7,167.39,10.82Zm9.22,0C176.61,8,175.2,6.3,173,6.3s-3.57,1.65-3.57,4.52,1.42,4.51,3.57,4.51S176.61,13.69,176.61,10.82Z"/><path class="cls-2" d="M180.87,4.72h1.93v2h0a3,3,0,0,1,3-2.2,5.9,5.9,0,0,1,.82.08v2a4.68,4.68,0,0,0-1.09-.11,2.58,2.58,0,0,0-2.62,2.86v7.59h-2Z"/><path class="cls-2" d="M197.74,4.51c2.68,0,4.46,1.57,4.54,3.73h-1.95a2.32,2.32,0,0,0-2.59-2.06c-1.48,0-2.47.73-2.47,1.8,0,.84.62,1.42,2,1.75l1.94.47c2.46.59,3.35,1.55,3.35,3.3,0,2.12-2,3.62-4.73,3.62s-4.64-1.44-4.87-3.73h2c.24,1.4,1.18,2.07,2.83,2.07s2.68-.71,2.68-1.81c0-.88-.48-1.38-1.88-1.72l-1.93-.47c-2.3-.55-3.41-1.62-3.41-3.37C193.27,6,195.11,4.51,197.74,4.51Z"/><path class="cls-2" d="M204.64,1.28a1.28,1.28,0,1,1,2.55,0,1.28,1.28,0,0,1-2.55,0Zm.26,3.44h2V16.91h-2Z"/><path class="cls-2" d="M212.53,1.78V4.72h2.37V6.4h-2.37v7.24c0,1.11.47,1.62,1.51,1.62.23,0,.7,0,.84-.06v1.71a7.08,7.08,0,0,1-1.29.09c-2.23,0-3.1-.91-3.1-3.25V6.4h-1.82V4.72h1.82V1.78Z"/><path class="cls-2" d="M221.78,13.46c0-2.08,1.61-3.39,4.42-3.56l3.49-.2v-1c0-1.48-1-2.38-2.67-2.38a2.55,2.55,0,0,0-2.81,1.94h-2c.14-2.11,1.94-3.73,4.83-3.73s4.66,1.55,4.66,4v8.43H229.8v-2.1h-.05a4.43,4.43,0,0,1-3.91,2.31C223.41,17.12,221.78,15.66,221.78,13.46Zm7.91-1.18v-1l-3.26.19c-1.64.11-2.57.84-2.57,2s1,1.93,2.43,1.93A3.21,3.21,0,0,0,229.69,12.28Z"/><path class="cls-2" d="M234.46,4.72h1.93v2h0a3.66,3.66,0,0,1,3.46-2.16,3.42,3.42,0,0,1,3.42,2.32h.05a4.08,4.08,0,0,1,3.82-2.32,3.73,3.73,0,0,1,4,4v8.41h-2V9a2.36,2.36,0,0,0-2.53-2.64,2.69,2.69,0,0,0-2.75,2.84v7.75h-2V8.74a2.32,2.32,0,0,0-2.5-2.42,2.79,2.79,0,0,0-2.79,2.95v7.64h-2Z"/><path class="cls-2" d="M264,13.42c-.36,2.13-2.42,3.7-5.08,3.7-3.49,0-5.61-2.42-5.61-6.26s2.15-6.35,5.52-6.35,5.32,2.39,5.32,6.08v.78h-8.74v.11c0,2.34,1.37,3.87,3.56,3.87a2.93,2.93,0,0,0,3-1.93ZM255.4,9.77H262a3.26,3.26,0,0,0-3.25-3.49A3.42,3.42,0,0,0,255.4,9.77Z"/><path class="cls-2" d="M269,1.78V4.72h2.36V6.4H269v7.24c0,1.11.47,1.62,1.51,1.62.23,0,.7,0,.84-.06v1.71a7.16,7.16,0,0,1-1.29.09c-2.23,0-3.1-.91-3.1-3.25V6.4h-1.82V4.72H267V1.78Z"/><path class="cls-2" d="M273.39,20.27l1.14-6h2.17l-1.61,6Z"/><path class="cls-2" d="M292,8.72a3,3,0,0,0-3.12-2.42c-2.1,0-3.53,1.75-3.53,4.52s1.45,4.51,3.56,4.51A2.94,2.94,0,0,0,292,13h2a4.86,4.86,0,0,1-5.12,4.14c-3.38,0-5.63-2.38-5.63-6.3s2.24-6.31,5.6-6.31A4.85,4.85,0,0,1,294,8.72Z"/><path class="cls-2" d="M295.4,10.82c0-3.89,2.27-6.31,5.65-6.31s5.63,2.42,5.63,6.31-2.27,6.3-5.63,6.3S295.4,14.7,295.4,10.82Zm9.21,0c0-2.87-1.41-4.52-3.56-4.52s-3.58,1.65-3.58,4.52,1.42,4.51,3.58,4.51S304.61,13.69,304.61,10.82Z"/><path class="cls-2" d="M308.88,4.72h1.92v2h.05a4.08,4.08,0,0,1,3.86-2.16c2.68,0,4.22,1.72,4.22,4.49v7.91h-2V9.36c0-2-.92-3-2.8-3a3.11,3.11,0,0,0-3.17,3.42v7.17h-2Z"/><path class="cls-2" d="M321.64,11V9.11h7.69V11Z"/><path class="cls-2" d="M4.8,33.31c2.68,0,4.46,1.57,4.54,3.73H7.39A2.32,2.32,0,0,0,4.8,35c-1.48,0-2.47.73-2.47,1.8,0,.84.62,1.42,2,1.75L6.25,39c2.46.59,3.35,1.55,3.35,3.3,0,2.12-2,3.62-4.72,3.62S.23,44.48,0,42.19H2c.25,1.4,1.18,2.07,2.84,2.07s2.67-.71,2.67-1.81c0-.88-.48-1.38-1.88-1.72l-1.93-.47C1.44,39.71.33,38.64.33,36.89.33,34.8,2.17,33.31,4.8,33.31Z"/><path class="cls-2" d="M21.94,42.22c-.35,2.13-2.41,3.7-5.07,3.7-3.5,0-5.62-2.42-5.62-6.26s2.16-6.35,5.52-6.35,5.32,2.39,5.32,6.08v.78H13.35v.11c0,2.34,1.37,3.87,3.56,3.87a2.94,2.94,0,0,0,3-1.93Zm-8.58-3.65H20a3.25,3.25,0,0,0-3.24-3.49A3.43,3.43,0,0,0,13.36,38.57Z"/><path class="cls-2" d="M32.42,37.52A3,3,0,0,0,29.3,35.1c-2.11,0-3.54,1.75-3.54,4.52s1.46,4.51,3.57,4.51a2.94,2.94,0,0,0,3.1-2.35h2a4.86,4.86,0,0,1-5.12,4.14c-3.38,0-5.63-2.38-5.63-6.3s2.24-6.31,5.6-6.31a4.85,4.85,0,0,1,5.12,4.21Z"/><path class="cls-2" d="M39.15,30.58v2.94h2.37V35.2H39.15v7.24c0,1.11.47,1.62,1.51,1.62.24,0,.71,0,.85-.06v1.71a7.24,7.24,0,0,1-1.29.09c-2.24,0-3.11-.91-3.11-3.25V35.2H35.29V33.52h1.82V30.58Z"/><path class="cls-2" d="M53.57,42.22c-.35,2.13-2.42,3.7-5.08,3.7-3.49,0-5.61-2.42-5.61-6.26S45,33.31,48.4,33.31s5.32,2.39,5.32,6.08v.78H45v.11c0,2.34,1.37,3.87,3.56,3.87a2.93,2.93,0,0,0,3-1.93ZM45,38.57h6.62a3.26,3.26,0,0,0-3.24-3.49A3.43,3.43,0,0,0,45,38.57Z"/><path class="cls-2" d="M58.61,30.58v2.94H61V35.2H58.61v7.24c0,1.11.47,1.62,1.51,1.62.24,0,.71,0,.85-.06v1.71a7.24,7.24,0,0,1-1.29.09c-2.24,0-3.11-.91-3.11-3.25V35.2H54.75V33.52h1.82V30.58Z"/><path class="cls-2" d="M73.3,45.71H71.36v-2h0a4,4,0,0,1-3.87,2.19c-2.66,0-4.22-1.72-4.22-4.49V33.52h2v7.55c0,2,.93,3,2.81,3s3.18-1.36,3.18-3.44V33.52h2Z"/><path class="cls-2" d="M86.17,42.22c-.35,2.13-2.42,3.7-5.08,3.7-3.49,0-5.61-2.42-5.61-6.26s2.16-6.35,5.52-6.35,5.32,2.39,5.32,6.08v.78H77.58v.11c0,2.34,1.37,3.87,3.56,3.87a2.93,2.93,0,0,0,3-1.93Zm-8.58-3.65h6.62A3.26,3.26,0,0,0,81,35.08,3.42,3.42,0,0,0,77.59,38.57Z"/><path class="cls-2" d="M88.52,33.52h1.92v2h0a3,3,0,0,1,3-2.2,5.9,5.9,0,0,1,.82.08v2a4.68,4.68,0,0,0-1.09-.11,2.58,2.58,0,0,0-2.62,2.86v7.59h-2Z"/><path class="cls-2" d="M100.63,42.26c0-2.08,1.6-3.39,4.42-3.56l3.49-.2v-1c0-1.48-1-2.38-2.67-2.38A2.57,2.57,0,0,0,103.05,37h-2c.15-2.11,2-3.73,4.83-3.73s4.67,1.55,4.67,4v8.43h-1.94v-2.1h0a4.45,4.45,0,0,1-3.92,2.31C102.26,45.92,100.63,44.46,100.63,42.26Zm7.91-1.18v-1l-3.26.2c-1.64.11-2.58.84-2.58,2s1,1.93,2.44,1.93A3.21,3.21,0,0,0,108.54,41.08Z"/><path class="cls-2" d="M112.71,39.62c0-3.82,2.1-6.31,5.17-6.31a4.29,4.29,0,0,1,3.88,2.19h0V28.8h2V45.71H121.9V43.65h0a4.38,4.38,0,0,1-3.94,2.27C114.82,45.92,112.71,43.44,112.71,39.62Zm2.09,0c0,2.76,1.36,4.51,3.51,4.51s3.51-1.78,3.51-4.51-1.41-4.52-3.51-4.52S114.8,36.86,114.8,39.62Z"/><path class="cls-2" d="M126.59,30.08a1.28,1.28,0,1,1,1.28,1.27A1.28,1.28,0,0,1,126.59,30.08Zm.26,3.44h2V45.71h-2Z"/><path class="cls-2" d="M142.92,39.62c0,3.82-2.1,6.3-5.17,6.3a4.27,4.27,0,0,1-3.88-2.19h0v6.05h-2V33.52h1.93v2.06h.05a4.36,4.36,0,0,1,3.93-2.27C140.81,33.31,142.92,35.8,142.92,39.62Zm-2.09,0c0-2.76-1.36-4.52-3.52-4.52s-3.5,1.81-3.5,4.52,1.41,4.51,3.5,4.51S140.83,42.38,140.83,39.62Z"/><path class="cls-2" d="M145,30.08a1.28,1.28,0,1,1,1.28,1.27A1.28,1.28,0,0,1,145,30.08Zm.26,3.44h2V45.71h-2Z"/><path class="cls-2" d="M154.42,33.31c2.67,0,4.46,1.57,4.54,3.73h-2A2.32,2.32,0,0,0,154.42,35c-1.49,0-2.47.73-2.47,1.8,0,.84.62,1.42,2,1.75l1.93.47c2.46.59,3.35,1.55,3.35,3.3,0,2.12-2,3.62-4.72,3.62s-4.64-1.44-4.87-3.73h2c.24,1.4,1.18,2.07,2.83,2.07s2.67-.71,2.67-1.81c0-.88-.48-1.38-1.87-1.72l-1.93-.47c-2.3-.55-3.41-1.62-3.41-3.37C150,34.8,151.79,33.31,154.42,33.31Z"/><path class="cls-2" d="M169.6,37.52a3,3,0,0,0-3.12-2.42c-2.11,0-3.54,1.75-3.54,4.52s1.46,4.51,3.57,4.51a2.94,2.94,0,0,0,3.1-2.35h2a4.86,4.86,0,0,1-5.12,4.14c-3.38,0-5.63-2.38-5.63-6.3s2.24-6.31,5.6-6.31a4.85,4.85,0,0,1,5.12,4.21Z"/><path class="cls-2" d="M173.48,30.08a1.28,1.28,0,1,1,1.28,1.27A1.28,1.28,0,0,1,173.48,30.08Zm.26,3.44h2V45.71h-2Z"/><path class="cls-2" d="M178.68,33.52h1.92v1.95h.05a4.08,4.08,0,0,1,3.86-2.16c2.68,0,4.22,1.72,4.22,4.49v7.91h-2V38.16c0-2-.92-3-2.8-3a3.11,3.11,0,0,0-3.17,3.42v7.17h-2Z"/><path class="cls-2" d="M191.35,46.72h2.1a3.15,3.15,0,0,0,3.13,1.85c2.11,0,3.38-1.22,3.38-3V43.61h0A4.41,4.41,0,0,1,196,45.8c-3.1,0-5.14-2.45-5.14-6.23s2-6.26,5.19-6.26a4.45,4.45,0,0,1,4,2.26h0v-2H202V45.46c0,2.91-2.14,4.84-5.51,4.84C193.81,50.3,191.69,48.79,191.35,46.72ZM200,39.57c0-2.68-1.42-4.47-3.54-4.47S193,36.84,193,39.57,194.33,44,196.42,44,200,42.25,200,39.57Z"/><path class="cls-2" d="M220,42.22c-.35,2.13-2.41,3.7-5.07,3.7-3.5,0-5.62-2.42-5.62-6.26s2.16-6.35,5.52-6.35,5.32,2.39,5.32,6.08v.78h-8.74v.11c0,2.34,1.37,3.87,3.56,3.87a2.94,2.94,0,0,0,3-1.93Zm-8.58-3.65H218a3.25,3.25,0,0,0-3.24-3.49A3.43,3.43,0,0,0,211.37,38.57Z"/><path class="cls-2" d="M222.4,28.8h2V45.71h-2Z"/><path class="cls-2" d="M227.19,30.08a1.28,1.28,0,1,1,1.27,1.27A1.27,1.27,0,0,1,227.19,30.08Zm.25,3.44h2V45.71h-2Z"/><path class="cls-2" d="M235.08,30.58v2.94h2.36V35.2h-2.36v7.24c0,1.11.47,1.62,1.51,1.62.23,0,.7,0,.84-.06v1.71a7.16,7.16,0,0,1-1.29.09c-2.23,0-3.1-.91-3.1-3.25V35.2h-1.82V33.52H233V30.58Z"/><path class="cls-2" d="M239.45,49.07l1.14-6h2.17l-1.61,6Z"/><path class="cls-2" d="M254.15,33.31c2.68,0,4.46,1.57,4.54,3.73h-1.95A2.32,2.32,0,0,0,254.15,35c-1.48,0-2.47.73-2.47,1.8,0,.84.62,1.42,2,1.75l1.93.47c2.47.59,3.36,1.55,3.36,3.3,0,2.12-2,3.62-4.73,3.62s-4.64-1.44-4.87-3.73h2c.24,1.4,1.18,2.07,2.83,2.07s2.68-.71,2.68-1.81c0-.88-.48-1.38-1.88-1.72l-1.93-.47c-2.3-.55-3.41-1.62-3.41-3.37C249.68,34.8,251.52,33.31,254.15,33.31Z"/><path class="cls-2" d="M271.29,42.22c-.35,2.13-2.41,3.7-5.07,3.7-3.5,0-5.62-2.42-5.62-6.26s2.16-6.35,5.52-6.35,5.32,2.39,5.32,6.08v.78H262.7v.11c0,2.34,1.37,3.87,3.56,3.87a2.94,2.94,0,0,0,3-1.93Zm-8.58-3.65h6.62a3.25,3.25,0,0,0-3.24-3.49A3.43,3.43,0,0,0,262.71,38.57Z"/><path class="cls-2" d="M273,39.62c0-3.82,2.1-6.31,5.17-6.31a4.3,4.3,0,0,1,3.88,2.19h0V28.8h2V45.71h-1.94V43.65h0a4.37,4.37,0,0,1-3.94,2.27C275.15,45.92,273,43.44,273,39.62Zm2.08,0c0,2.76,1.36,4.51,3.52,4.51s3.5-1.78,3.5-4.51-1.4-4.52-3.5-4.52S275.12,36.86,275.12,39.62Z"/><path class="cls-2" d="M291.54,39.62c0-3.82,2.1-6.31,5.17-6.31a4.28,4.28,0,0,1,3.87,2.19h.05V28.8h2V45.71h-1.94V43.65h0a4.37,4.37,0,0,1-3.94,2.27C293.65,45.92,291.54,43.44,291.54,39.62Zm2.08,0c0,2.76,1.36,4.51,3.52,4.51s3.5-1.78,3.5-4.51-1.4-4.52-3.5-4.52S293.62,36.86,293.62,39.62Z"/><path class="cls-2" d="M305.42,30.08a1.28,1.28,0,1,1,1.27,1.27A1.27,1.27,0,0,1,305.42,30.08Zm.25,3.44h2V45.71h-2Z"/><path class="cls-2" d="M310.12,42.26c0-2.08,1.6-3.39,4.42-3.56l3.49-.2v-1c0-1.48-1-2.38-2.67-2.38A2.57,2.57,0,0,0,312.54,37h-2c.14-2.11,1.94-3.73,4.82-3.73s4.67,1.55,4.67,4v8.43h-1.94v-2.1h0a4.45,4.45,0,0,1-3.92,2.31C311.75,45.92,310.12,44.46,310.12,42.26ZM318,41.08v-1l-3.26.2c-1.64.11-2.58.84-2.58,2s1,1.93,2.44,1.93A3.21,3.21,0,0,0,318,41.08Z"/></g></g></g></svg>