<svg xmlns="http://www.w3.org/2000/svg" viewBox="0 0 78.86 16.01"><defs><style>.cls-1{opacity:0.5;}.cls-2{fill:#231f20;}</style></defs><g id="Layer_2" data-name="Layer 2"><g id="Layer_1-2" data-name="Layer 1"><g class="cls-1"><path class="cls-2" d="M2.86,12.63V2.26h0C2.18,2.61.84,3.43,0,4V2.44A27.84,27.84,0,0,1,3,.63H4.38v12Z"/><path class="cls-2" d="M11.3,0h1.51V4.61h0a3,3,0,0,1,2.69-1.37,3.17,3.17,0,0,1,3.32,3.47v5.92H17.35V7a2.11,2.11,0,0,0-2.26-2.35A2.18,2.18,0,0,0,12.81,7v5.63H11.3Z"/><path class="cls-2" d="M29.07,7.58v.83c0,2.51-1.36,4.37-3.95,4.37s-4-1.86-4-4.37V7.58c0-2.46,1.39-4.34,4-4.34S29.07,5.12,29.07,7.58Zm-6.41.06v.72c0,1.88.87,3.11,2.46,3.11s2.44-1.22,2.44-3.11V7.64c0-1.89-.86-3.1-2.44-3.1S22.66,5.75,22.66,7.64Z"/><path class="cls-2" d="M38.88,12.63H37.37V11.42h-.06a2.71,2.71,0,0,1-2.67,1.36,3,3,0,0,1-3.27-3.21V3.39h1.52V9.14a2,2,0,0,0,2.21,2.28,2.13,2.13,0,0,0,2.25-2.31V3.39h1.53Z"/><path class="cls-2" d="M41.67,3.39h1.51V4.53h0A2.4,2.4,0,0,1,45.5,3.25a3.68,3.68,0,0,1,.58,0V4.68a5,5,0,0,0-.74,0c-1.64,0-2.15,1-2.15,2.27v5.72H41.67Z"/><path class="cls-2" d="M54.07,12.78a2.77,2.77,0,0,1-3-2.8c0-1.62,1.13-2.64,3.25-2.65h2.43V6.39A2,2,0,0,0,52.83,6H51.41c.09-1.62,1.19-2.8,3.42-2.8,2,0,3.41,1.08,3.41,3v6.37H56.79V11.48h0A2.92,2.92,0,0,1,54.07,12.78Zm2.66-3.22V8.49H54.41c-1.26,0-1.81.6-1.81,1.43a1.66,1.66,0,0,0,1.87,1.6A2.05,2.05,0,0,0,56.73,9.56Z"/><path class="cls-2" d="M67,12.45V11.08h0a2.87,2.87,0,0,1-2.63,1.46c-2.16,0-3.7-1.51-3.7-4.28V7.5c0-2.72,1.53-4.25,3.7-4.25A3.05,3.05,0,0,1,67,4.69h0V3.39h1.46v9.07c0,2.37-1.84,3.55-3.93,3.55C62.2,16,61,14.85,60.8,13.32h1.54a2.1,2.1,0,0,0,2.22,1.43A2.18,2.18,0,0,0,67,12.45ZM62.11,7.61v.57c0,1.92.91,3.07,2.47,3.07S67,10.09,67,8.18V7.61c0-1.87-.93-3.06-2.39-3.06S62.11,5.66,62.11,7.61Z"/><path class="cls-2" d="M78.86,7.58v.83c0,2.51-1.36,4.37-4,4.37s-4-1.86-4-4.37V7.58c0-2.46,1.39-4.34,4-4.34S78.86,5.12,78.86,7.58Zm-6.42.06v.72c0,1.88.87,3.11,2.46,3.11s2.45-1.22,2.45-3.11V7.64c0-1.89-.86-3.1-2.45-3.1S72.44,5.75,72.44,7.64Z"/></g></g></g></svg>