<svg xmlns="http://www.w3.org/2000/svg" viewBox="0 0 112.53 35.07"><defs><style>.cls-1{fill:#eaeaea;}.cls-1,.cls-2{opacity:0.6;}.cls-3{fill:#231f20;}</style></defs><g id="Layer_2" data-name="Layer 2"><g id="Layer_1-2" data-name="Layer 1"><rect class="cls-1" width="112.53" height="35.07" rx="11.2"/><g class="cls-2"><path class="cls-3" d="M19.66,22.3V11.93h0c-.65.35-2,1.17-2.83,1.75V12.12a28.07,28.07,0,0,1,3-1.82h1.42v12Z"/><path class="cls-3" d="M28.1,9.67h1.51v4.62h.05a3,3,0,0,1,2.69-1.38,3.16,3.16,0,0,1,3.31,3.47V22.3H34.15V16.63a2.1,2.1,0,0,0-2.26-2.34,2.17,2.17,0,0,0-2.28,2.39V22.3H28.1Z"/><path class="cls-3" d="M45.88,17.26v.82c0,2.51-1.37,4.37-4,4.37s-4-1.86-4-4.37v-.82c0-2.47,1.39-4.35,4-4.35S45.88,14.79,45.88,17.26Zm-6.42,0V18c0,1.88.87,3.11,2.46,3.11s2.44-1.22,2.44-3.11v-.72c0-1.89-.86-3.1-2.44-3.1S39.46,15.42,39.46,17.31Z"/><path class="cls-3" d="M55.68,22.3H54.17V21.09h-.06a2.7,2.7,0,0,1-2.67,1.36,3,3,0,0,1-3.27-3.21V13.06h1.52v5.75a2,2,0,0,0,2.21,2.28,2.13,2.13,0,0,0,2.26-2.3V13.06h1.52Z"/><path class="cls-3" d="M58.47,13.06H60V14.2h0a2.41,2.41,0,0,1,2.28-1.28,3.66,3.66,0,0,1,.57.05v1.38a5,5,0,0,0-.74,0c-1.63,0-2.14,1-2.14,2.27V22.3H58.47Z"/><path class="cls-3" d="M70.87,22.45a2.76,2.76,0,0,1-3-2.8C67.86,18,69,17,71.1,17h2.44v-.94a1.74,1.74,0,0,0-2-1.88,1.72,1.72,0,0,0-2,1.53H68.21c.1-1.62,1.19-2.8,3.43-2.8,2,0,3.4,1.08,3.4,3V22.3H73.59V21.15h0A2.92,2.92,0,0,1,70.87,22.45Zm2.67-3.22V18.16H71.22c-1.27,0-1.82.6-1.82,1.43a1.67,1.67,0,0,0,1.88,1.6A2.05,2.05,0,0,0,73.54,19.23Z"/><path class="cls-3" d="M83.77,22.12V20.75h0a2.86,2.86,0,0,1-2.63,1.46c-2.16,0-3.69-1.51-3.69-4.28v-.76c0-2.72,1.52-4.25,3.69-4.25a3.06,3.06,0,0,1,2.69,1.45h0V13.06h1.46v9.07c0,2.37-1.84,3.56-3.93,3.56-2.34,0-3.54-1.16-3.75-2.7h1.55a2.08,2.08,0,0,0,2.21,1.43A2.18,2.18,0,0,0,83.77,22.12Zm-4.86-4.84v.57c0,1.92.91,3.07,2.47,3.07s2.39-1.16,2.39-3.07v-.57c0-1.87-.93-3.06-2.39-3.06S78.91,15.33,78.91,17.28Z"/><path class="cls-3" d="M95.66,17.26v.82c0,2.51-1.36,4.37-4,4.37s-4-1.86-4-4.37v-.82c0-2.47,1.39-4.35,4-4.35S95.66,14.79,95.66,17.26Zm-6.41,0V18c0,1.88.87,3.11,2.46,3.11s2.44-1.22,2.44-3.11v-.72c0-1.89-.86-3.1-2.44-3.1S89.25,15.42,89.25,17.31Z"/></g></g></g></svg>