<svg xmlns="http://www.w3.org/2000/svg" xmlns:xlink="http://www.w3.org/1999/xlink" viewBox="0 0 589.96 120.78"><defs><style>.cls-1,.cls-2,.cls-3,.cls-5{fill:#9c2e43;}.cls-2,.cls-3,.cls-4,.cls-5{stroke-miterlimit:10;stroke-width:3px;}.cls-2{stroke:url(#linear-gradient);}.cls-3{stroke:url(#linear-gradient-2);}.cls-4{fill:#f8f7f8;stroke:url(#linear-gradient-3);}.cls-5{stroke:url(#linear-gradient-4);}</style><linearGradient id="linear-gradient" x1="366.07" y1="18.41" x2="365.75" y2="93.4" gradientUnits="userSpaceOnUse"><stop offset="0" stop-color="#f2f2f3"/><stop offset="0.83" stop-color="#f0efef"/><stop offset="1" stop-color="#efeded"/></linearGradient><linearGradient id="linear-gradient-2" x1="510.61" y1="21.42" x2="510.3" y2="93.49" xlink:href="#linear-gradient"/><linearGradient id="linear-gradient-3" x1="74.87" y1="16.5" x2="74.54" y2="93.39" xlink:href="#linear-gradient"/><linearGradient id="linear-gradient-4" x1="220.47" y1="18.4" x2="220.15" y2="93.41" xlink:href="#linear-gradient"/></defs><g id="Layer_2" data-name="Layer 2"><g id="Layer_1-2" data-name="Layer 1"><rect class="cls-1" width="589.96" height="120.78" rx="60.39"/><g id="Bookmark"><path class="cls-2" d="M391.26,21V90.79a1,1,0,0,1-1.59.81L366.5,75a1,1,0,0,0-1.17,0L342.15,91.6a1,1,0,0,1-1.59-.81V21a1,1,0,0,1,1-1h48.69A1,1,0,0,1,391.26,21Z"/></g><g id="Gear"><path class="cls-3" d="M538.65,61.13a5,5,0,0,1,0-7.34l6.06-5.63a34.5,34.5,0,0,0-3.45-8.39l-8.29.32a5,5,0,0,1-5.19-5.19l.32-8.3a33.53,33.53,0,0,0-4.08-2,32.87,32.87,0,0,0-4.29-1.46l-5.63,6.09a5,5,0,0,1-7.33,0l-5.65-6.09a35.24,35.24,0,0,0-8.35,3.5l.32,8.28a5,5,0,0,1-5.17,5.2l-8.27-.31a30.18,30.18,0,0,0-2,4.07,28.69,28.69,0,0,0-1.44,4.31l6.06,5.62a5,5,0,0,1,0,7.35L476.2,66.8a34.76,34.76,0,0,0,3.48,8.4l8.26-.33a5,5,0,0,1,5.2,5.19l-.31,8.27a28.44,28.44,0,0,0,4.06,2,29,29,0,0,0,4.3,1.44l5.62-6.07a5,5,0,0,1,7.33,0l5.63,6.07a36.14,36.14,0,0,0,8.38-3.49L527.83,80a5,5,0,0,1,5.17-5.2l8.26.3a29.09,29.09,0,0,0,2-4.07,31,31,0,0,0,1.44-4.3Zm-17.09.94a12,12,0,1,1-6.51-15.72A12,12,0,0,1,521.56,62.07Z"/></g><path class="cls-4" d="M114.62,53.88,76.12,18.52h0A2,2,0,0,0,74.7,18a2.36,2.36,0,0,0-.72.12L34.72,54.18c-1.41,1.3-.29,3.33,1.86,3.37l12.07.23V88.52c0,1.81,1.83,3.27,4.09,3.27H97.1c2.16,0,3.92-1.4,3.92-3.13V57.78l11.57-.22C114.94,57.52,116.16,55.3,114.62,53.88Z"/><path id="Icon_ionic-md-list-box" data-name="Icon ionic-md-list-box" class="cls-5" d="M247.15,20H193.46a7.28,7.28,0,0,0-7.06,7.48h0V84.32a7.27,7.27,0,0,0,7.06,7.47h53.69a7.27,7.27,0,0,0,7.06-7.47h0V27.49A7.28,7.28,0,0,0,247.15,20ZM228.29,76.84H201a.53.53,0,0,1-.5-.55V68.41a.52.52,0,0,1,.5-.54h27.24a.53.53,0,0,1,.51.54v7.88A.53.53,0,0,1,228.29,76.84Zm11.3-16.45H201a.53.53,0,0,1-.5-.55V52a.52.52,0,0,1,.5-.55h38.55a.53.53,0,0,1,.5.55v7.87A.53.53,0,0,1,239.59,60.39Zm0-16.45H201a.52.52,0,0,1-.5-.55V35.52A.52.52,0,0,1,201,35h38.55a.53.53,0,0,1,.5.55v7.87A.52.52,0,0,1,239.59,43.94Z"/></g></g></svg>