<svg xmlns="http://www.w3.org/2000/svg" xmlns:xlink="http://www.w3.org/1999/xlink" viewBox="0 0 70.81 74.78"><defs><style>.cls-1{fill:#9c2e43;stroke-miterlimit:10;stroke-width:3px;stroke:url(#linear-gradient);}</style><linearGradient id="linear-gradient" x1="35.56" y1="-0.11" x2="35.24" y2="74.89" gradientUnits="userSpaceOnUse"><stop offset="0" stop-color="#f2f2f3"/><stop offset="0.83" stop-color="#f0efef"/><stop offset="1" stop-color="#efeded"/></linearGradient></defs><g id="Layer_2" data-name="Layer 2"><g id="Layer_1-2" data-name="Layer 1"><path id="Icon_ionic-md-list-box" data-name="Icon ionic-md-list-box" class="cls-1" d="M62.25,1.5H8.56A7.28,7.28,0,0,0,1.5,9h0V65.8a7.28,7.28,0,0,0,7.06,7.48H62.25a7.28,7.28,0,0,0,7.06-7.48h0V9A7.28,7.28,0,0,0,62.25,1.5ZM43.38,58.32H16.13a.52.52,0,0,1-.5-.55V49.9a.53.53,0,0,1,.5-.55H43.37a.53.53,0,0,1,.51.55v7.87A.53.53,0,0,1,43.38,58.32Zm11.3-16.45H16.13a.52.52,0,0,1-.5-.54V33.45a.53.53,0,0,1,.5-.55H54.67a.53.53,0,0,1,.51.55v7.87A.52.52,0,0,1,54.68,41.87Zm0-16.44H16.13a.53.53,0,0,1-.5-.55V17a.53.53,0,0,1,.5-.55H54.67a.53.53,0,0,1,.51.55v7.88A.53.53,0,0,1,54.68,25.43Z"/></g></g></svg>