<svg xmlns="http://www.w3.org/2000/svg" xmlns:xlink="http://www.w3.org/1999/xlink" viewBox="0 0 71.87 72.02"><defs><style>.cls-1{fill:#9c2e43;stroke-miterlimit:10;stroke-width:3px;stroke:url(#linear-gradient);}</style><linearGradient id="linear-gradient" x1="36.09" y1="-0.04" x2="35.78" y2="72.04" gradientUnits="userSpaceOnUse"><stop offset="0" stop-color="#f2f2f3"/><stop offset="0.83" stop-color="#f0efef"/><stop offset="1" stop-color="#efeded"/></linearGradient></defs><g id="Layer_2" data-name="Layer 2"><g id="Layer_1-2" data-name="Layer 1"><g id="Gear"><path class="cls-1" d="M64.13,39.67a5,5,0,0,1,0-7.34l6.06-5.63a34.83,34.83,0,0,0-3.45-8.39l-8.29.32a5,5,0,0,1-5.19-5.19l.32-8.3a36.71,36.71,0,0,0-8.37-3.46l-5.63,6.1a5,5,0,0,1-7.33,0L26.6,1.7a34.44,34.44,0,0,0-8.35,3.5l.32,8.27a5,5,0,0,1-5.18,5.2l-8.26-.3a30.23,30.23,0,0,0-2,4.07,29.69,29.69,0,0,0-1.43,4.3l6.06,5.63a5,5,0,0,1,0,7.34L1.68,45.34a34.76,34.76,0,0,0,3.48,8.4l8.26-.33a5,5,0,0,1,5.2,5.19l-.31,8.28a29.48,29.48,0,0,0,4.06,2,29,29,0,0,0,4.3,1.45l5.62-6.08a5,5,0,0,1,7.33,0l5.63,6.08a36.58,36.58,0,0,0,8.38-3.49l-.32-8.28a5,5,0,0,1,5.17-5.2l8.26.31a31.46,31.46,0,0,0,2-4.07A31.14,31.14,0,0,0,70.2,45.3ZM47,40.61a12,12,0,1,1-6.51-15.72A12,12,0,0,1,47,40.61Z"/></g></g></g></svg>